<svg width="461" height="140" viewBox="0 0 461 140" fill="none" xmlns="http://www.w3.org/2000/svg">
<g filter="url(#filter0_d)">
<mask id="path-1-outside-1" maskUnits="userSpaceOnUse" x="4" y="2" width="453" height="132" fill="black">
<rect fill="white" x="4" y="2" width="453" height="132"/>
<path d="M45.5393 80.1169L42.0326 95.0454H25L45.9401 25.6127H65.8782L86.8182 95.0454H69.3849L65.8782 80.1169H45.5393ZM55.6586 37.5355L48.3447 68.1941H62.9726L55.6586 37.5355Z"/>
<path d="M102.332 40.1404C106.14 40.1404 109.713 40.7082 113.053 41.8437C116.393 42.9792 119.331 44.5823 121.87 46.6529L116.059 55.6701C111.784 52.8648 107.576 51.4621 103.434 51.4621C101.097 51.4621 99.3599 51.8295 98.2244 52.5642C97.0889 53.2321 96.5212 54.2007 96.5212 55.4698C96.5212 56.4717 96.755 57.3066 97.2225 57.9745C97.7569 58.5757 98.7922 59.2102 100.328 59.8782C101.865 60.5461 104.236 61.3477 107.442 62.2828C112.986 63.8859 117.094 65.9899 119.766 68.5949C122.504 71.133 123.873 74.6732 123.873 79.2152C123.873 82.8221 122.838 85.9614 120.768 88.6332C118.697 91.2382 115.858 93.242 112.251 94.6447C108.644 96.0474 104.637 96.7487 100.228 96.7487C95.753 96.7487 91.5784 96.0474 87.7043 94.6447C83.897 93.242 80.6575 91.305 77.9857 88.8336L85.8007 80.1169C87.8045 81.7868 90.0087 83.0892 92.4133 84.0244C94.8179 84.9595 97.2559 85.4271 99.7273 85.4271C102.199 85.4271 104.102 84.9929 105.438 84.1246C106.841 83.2562 107.542 82.0539 107.542 80.5177C107.542 79.2486 107.275 78.2467 106.741 77.5119C106.206 76.7104 105.171 76.009 103.635 75.4079C102.099 74.7399 99.6605 73.9384 96.3208 73.0033C91.044 71.467 87.1032 69.3296 84.4982 66.591C81.8932 63.8525 80.5907 60.4459 80.5907 56.3715C80.5907 53.2989 81.459 50.5604 83.1957 48.1558C84.9991 45.6844 87.5373 43.7473 90.8102 42.3447C94.15 40.8752 97.9907 40.1404 102.332 40.1404Z"/>
<path d="M157.377 92.5407C155.44 93.8765 153.169 94.9119 150.564 95.6466C148.026 96.3813 145.488 96.7487 142.95 96.7487C131.328 96.6819 125.516 90.2697 125.516 77.5119V52.8648H118.002V41.8437H125.516V30.3217L141.347 28.5182V41.8437H153.57L151.867 52.8648H141.347V77.3115C141.347 79.7829 141.748 81.553 142.549 82.6217C143.351 83.6904 144.62 84.2248 146.356 84.2248C148.227 84.2248 150.13 83.6236 152.067 82.4213L157.377 92.5407Z"/>
<path d="M184.003 95.1456C181.865 102.025 178.358 107.302 173.482 110.976C168.673 114.716 162.194 116.82 154.045 117.288L152.342 106.167C157.418 105.499 161.159 104.363 163.563 102.76C166.035 101.157 168.005 98.5856 169.475 95.0454H164.064L147.833 41.8437H164.666L174.184 84.9261L184.604 41.8437H200.935L184.003 95.1456Z"/>
<path d="M198.488 95.0454V20.7033L214.318 19V95.0454H198.488ZM248.484 95.0454H230.65L214.819 65.9899L231.05 41.8437H247.181L231.05 65.1883L248.484 95.0454Z"/>
<path d="M275.611 40.1404C282.09 40.1404 287.033 42.6118 290.44 47.5546C293.913 52.4974 295.65 59.4774 295.65 68.4947C295.65 73.9718 294.781 78.8478 293.045 83.1226C291.375 87.3975 288.937 90.7372 285.731 93.1418C282.591 95.5464 278.851 96.7487 274.509 96.7487C271.57 96.7487 268.899 96.181 266.494 95.0454C264.156 93.8432 262.186 92.1399 260.583 89.9357L259.781 95.0454H245.754V20.7033L261.585 19V47.254C263.121 45.1166 265.158 43.4134 267.696 42.1443C270.234 40.8084 272.873 40.1404 275.611 40.1404ZM270.001 85.2267C276.146 85.2267 279.218 79.6493 279.218 68.4947C279.218 62.216 278.484 57.8744 277.014 55.4698C275.545 52.9984 273.441 51.7627 270.702 51.7627C267.095 51.7627 264.056 53.8333 261.585 57.9745V80.0167C263.722 83.49 266.527 85.2267 270.001 85.2267Z"/>
<path d="M339.802 79.6159C339.802 81.6198 340.069 83.0892 340.604 84.0244C341.205 84.9595 342.14 85.6608 343.409 86.1284L340.103 96.4481C336.83 96.181 334.158 95.4796 332.087 94.3441C330.084 93.2086 328.48 91.3718 327.278 88.8336C323.805 94.1103 318.461 96.7487 311.248 96.7487C305.971 96.7487 301.763 95.2124 298.623 92.1399C295.484 89.0674 293.914 85.0597 293.914 80.1169C293.914 74.3058 296.052 69.864 300.327 66.7914C304.601 63.7189 310.78 62.1826 318.862 62.1826H324.272V59.8782C324.272 56.7388 323.604 54.6014 322.269 53.4659C320.933 52.2636 318.595 51.6625 315.255 51.6625C313.519 51.6625 311.414 51.9297 308.943 52.464C306.472 52.9316 303.934 53.5995 301.329 54.4678L297.722 44.0479C301.061 42.7788 304.468 41.8103 307.941 41.1424C311.481 40.4744 314.754 40.1404 317.76 40.1404C325.375 40.1404 330.952 41.7101 334.492 44.8494C338.032 47.9888 339.802 52.6978 339.802 58.9765V79.6159ZM315.856 85.4271C317.593 85.4271 319.163 84.9929 320.565 84.1246C322.035 83.2562 323.271 82.0205 324.272 80.4175V70.8993H320.365C316.758 70.8993 314.053 71.5338 312.249 72.8029C310.513 74.072 309.644 76.0424 309.644 78.7142C309.644 80.8516 310.179 82.5215 311.248 83.7238C312.383 84.8593 313.919 85.4271 315.856 85.4271Z"/>
<path d="M393.39 44.9496C389.916 46.3523 384.807 47.0537 378.06 47.0537C381.534 48.5231 384.072 50.3266 385.675 52.464C387.278 54.6014 388.08 57.3734 388.08 60.7799C388.08 64.1864 387.178 67.259 385.374 69.9975C383.571 72.6693 380.966 74.7733 377.559 76.3096C374.22 77.8459 370.279 78.614 365.737 78.614C363.599 78.614 361.562 78.4136 359.625 78.0129C359.091 78.2801 358.657 78.7142 358.323 79.3154C358.056 79.8497 357.922 80.4175 357.922 81.0186C357.922 82.0205 358.289 82.8221 359.024 83.4232C359.826 83.9576 361.395 84.2248 363.733 84.2248H371.748C375.823 84.2248 379.396 84.8927 382.469 86.2286C385.541 87.5645 387.913 89.4013 389.582 91.7391C391.252 94.0769 392.087 96.7153 392.087 99.6543C392.087 105.198 389.683 109.506 384.874 112.579C380.131 115.718 373.251 117.288 364.234 117.288C357.755 117.288 352.645 116.587 348.905 115.184C345.164 113.848 342.526 111.944 340.99 109.473C339.52 107.002 338.785 103.896 338.785 100.155H353.013C353.013 101.758 353.313 103.027 353.914 103.963C354.582 104.898 355.751 105.599 357.421 106.067C359.091 106.534 361.495 106.768 364.635 106.768C368.976 106.768 371.982 106.234 373.652 105.165C375.322 104.163 376.157 102.693 376.157 100.756C376.157 99.1533 375.522 97.8842 374.253 96.9491C372.984 96.014 371.08 95.5464 368.542 95.5464H360.828C355.35 95.5464 351.242 94.5779 348.504 92.6409C345.832 90.637 344.496 88.0988 344.496 85.0263C344.496 83.0892 345.064 81.219 346.2 79.4156C347.335 77.5453 348.871 76.009 350.808 74.8067C347.469 73.0033 345.031 70.8993 343.494 68.4947C342.025 66.0233 341.29 63.0509 341.29 59.5776C341.29 53.6329 343.428 48.9239 347.702 45.4506C351.977 41.9105 357.621 40.1404 364.635 40.1404C369.978 40.274 374.487 39.7397 378.161 38.5374C381.901 37.3351 385.742 35.565 389.683 33.2272L393.39 44.9496ZM365.036 50.5604C362.564 50.5604 360.594 51.3619 359.124 52.965C357.722 54.5012 357.02 56.6387 357.02 59.3772C357.02 62.2494 357.722 64.487 359.124 66.0901C360.594 67.6263 362.564 68.3945 365.036 68.3945C367.641 68.3945 369.611 67.6263 370.947 66.0901C372.35 64.5538 373.051 62.2494 373.051 59.1768C373.051 53.4325 370.379 50.5604 365.036 50.5604Z"/>
<path d="M433.845 79.6159C433.845 81.6198 434.112 83.0892 434.647 84.0244C435.248 84.9595 436.183 85.6608 437.452 86.1284L434.146 96.4481C430.873 96.181 428.201 95.4796 426.131 94.3441C424.127 93.2086 422.524 91.3718 421.321 88.8336C417.848 94.1103 412.504 96.7487 405.291 96.7487C400.014 96.7487 395.806 95.2124 392.667 92.1399C389.527 89.0674 387.958 85.0597 387.958 80.1169C387.958 74.3058 390.095 69.864 394.37 66.7914C398.645 63.7189 404.823 62.1826 412.905 62.1826H418.316V59.8782C418.316 56.7388 417.648 54.6014 416.312 53.4659C414.976 52.2636 412.638 51.6625 409.298 51.6625C407.562 51.6625 405.458 51.9297 402.986 52.464C400.515 52.9316 397.977 53.5995 395.372 54.4678L391.765 44.0479C395.105 42.7788 398.511 41.8103 401.984 41.1424C405.524 40.4744 408.797 40.1404 411.803 40.1404C419.418 40.1404 424.995 41.7101 428.535 44.8494C432.075 47.9888 433.845 52.6978 433.845 58.9765V79.6159ZM409.899 85.4271C411.636 85.4271 413.206 84.9929 414.608 84.1246C416.078 83.2562 417.314 82.0205 418.316 80.4175V70.8993H414.408C410.801 70.8993 408.096 71.5338 406.293 72.8029C404.556 74.072 403.688 76.0424 403.688 78.7142C403.688 80.8516 404.222 82.5215 405.291 83.7238C406.426 84.8593 407.962 85.4271 409.899 85.4271Z"/>
</mask>
<path d="M45.5393 80.1169L42.0326 95.0454H25L45.9401 25.6127H65.8782L86.8182 95.0454H69.3849L65.8782 80.1169H45.5393ZM55.6586 37.5355L48.3447 68.1941H62.9726L55.6586 37.5355Z" fill="#149B5F"/>
<path d="M102.332 40.1404C106.14 40.1404 109.713 40.7082 113.053 41.8437C116.393 42.9792 119.331 44.5823 121.87 46.6529L116.059 55.6701C111.784 52.8648 107.576 51.4621 103.434 51.4621C101.097 51.4621 99.3599 51.8295 98.2244 52.5642C97.0889 53.2321 96.5212 54.2007 96.5212 55.4698C96.5212 56.4717 96.755 57.3066 97.2225 57.9745C97.7569 58.5757 98.7922 59.2102 100.328 59.8782C101.865 60.5461 104.236 61.3477 107.442 62.2828C112.986 63.8859 117.094 65.9899 119.766 68.5949C122.504 71.133 123.873 74.6732 123.873 79.2152C123.873 82.8221 122.838 85.9614 120.768 88.6332C118.697 91.2382 115.858 93.242 112.251 94.6447C108.644 96.0474 104.637 96.7487 100.228 96.7487C95.753 96.7487 91.5784 96.0474 87.7043 94.6447C83.897 93.242 80.6575 91.305 77.9857 88.8336L85.8007 80.1169C87.8045 81.7868 90.0087 83.0892 92.4133 84.0244C94.8179 84.9595 97.2559 85.4271 99.7273 85.4271C102.199 85.4271 104.102 84.9929 105.438 84.1246C106.841 83.2562 107.542 82.0539 107.542 80.5177C107.542 79.2486 107.275 78.2467 106.741 77.5119C106.206 76.7104 105.171 76.009 103.635 75.4079C102.099 74.7399 99.6605 73.9384 96.3208 73.0033C91.044 71.467 87.1032 69.3296 84.4982 66.591C81.8932 63.8525 80.5907 60.4459 80.5907 56.3715C80.5907 53.2989 81.459 50.5604 83.1957 48.1558C84.9991 45.6844 87.5373 43.7473 90.8102 42.3447C94.15 40.8752 97.9907 40.1404 102.332 40.1404Z" fill="#149B5F"/>
<path d="M157.377 92.5407C155.44 93.8765 153.169 94.9119 150.564 95.6466C148.026 96.3813 145.488 96.7487 142.95 96.7487C131.328 96.6819 125.516 90.2697 125.516 77.5119V52.8648H118.002V41.8437H125.516V30.3217L141.347 28.5182V41.8437H153.57L151.867 52.8648H141.347V77.3115C141.347 79.7829 141.748 81.553 142.549 82.6217C143.351 83.6904 144.62 84.2248 146.356 84.2248C148.227 84.2248 150.13 83.6236 152.067 82.4213L157.377 92.5407Z" fill="#149B5F"/>
<path d="M184.003 95.1456C181.865 102.025 178.358 107.302 173.482 110.976C168.673 114.716 162.194 116.82 154.045 117.288L152.342 106.167C157.418 105.499 161.159 104.363 163.563 102.76C166.035 101.157 168.005 98.5856 169.475 95.0454H164.064L147.833 41.8437H164.666L174.184 84.9261L184.604 41.8437H200.935L184.003 95.1456Z" fill="#149B5F"/>
<path d="M198.488 95.0454V20.7033L214.318 19V95.0454H198.488ZM248.484 95.0454H230.65L214.819 65.9899L231.05 41.8437H247.181L231.05 65.1883L248.484 95.0454Z" fill="#149B5F"/>
<path d="M275.611 40.1404C282.09 40.1404 287.033 42.6118 290.44 47.5546C293.913 52.4974 295.65 59.4774 295.65 68.4947C295.65 73.9718 294.781 78.8478 293.045 83.1226C291.375 87.3975 288.937 90.7372 285.731 93.1418C282.591 95.5464 278.851 96.7487 274.509 96.7487C271.57 96.7487 268.899 96.181 266.494 95.0454C264.156 93.8432 262.186 92.1399 260.583 89.9357L259.781 95.0454H245.754V20.7033L261.585 19V47.254C263.121 45.1166 265.158 43.4134 267.696 42.1443C270.234 40.8084 272.873 40.1404 275.611 40.1404ZM270.001 85.2267C276.146 85.2267 279.218 79.6493 279.218 68.4947C279.218 62.216 278.484 57.8744 277.014 55.4698C275.545 52.9984 273.441 51.7627 270.702 51.7627C267.095 51.7627 264.056 53.8333 261.585 57.9745V80.0167C263.722 83.49 266.527 85.2267 270.001 85.2267Z" fill="#149B5F"/>
<path d="M339.802 79.6159C339.802 81.6198 340.069 83.0892 340.604 84.0244C341.205 84.9595 342.14 85.6608 343.409 86.1284L340.103 96.4481C336.83 96.181 334.158 95.4796 332.087 94.3441C330.084 93.2086 328.48 91.3718 327.278 88.8336C323.805 94.1103 318.461 96.7487 311.248 96.7487C305.971 96.7487 301.763 95.2124 298.623 92.1399C295.484 89.0674 293.914 85.0597 293.914 80.1169C293.914 74.3058 296.052 69.864 300.327 66.7914C304.601 63.7189 310.78 62.1826 318.862 62.1826H324.272V59.8782C324.272 56.7388 323.604 54.6014 322.269 53.4659C320.933 52.2636 318.595 51.6625 315.255 51.6625C313.519 51.6625 311.414 51.9297 308.943 52.464C306.472 52.9316 303.934 53.5995 301.329 54.4678L297.722 44.0479C301.061 42.7788 304.468 41.8103 307.941 41.1424C311.481 40.4744 314.754 40.1404 317.76 40.1404C325.375 40.1404 330.952 41.7101 334.492 44.8494C338.032 47.9888 339.802 52.6978 339.802 58.9765V79.6159ZM315.856 85.4271C317.593 85.4271 319.163 84.9929 320.565 84.1246C322.035 83.2562 323.271 82.0205 324.272 80.4175V70.8993H320.365C316.758 70.8993 314.053 71.5338 312.249 72.8029C310.513 74.072 309.644 76.0424 309.644 78.7142C309.644 80.8516 310.179 82.5215 311.248 83.7238C312.383 84.8593 313.919 85.4271 315.856 85.4271Z" fill="#149B5F"/>
<path d="M393.39 44.9496C389.916 46.3523 384.807 47.0537 378.06 47.0537C381.534 48.5231 384.072 50.3266 385.675 52.464C387.278 54.6014 388.08 57.3734 388.08 60.7799C388.08 64.1864 387.178 67.259 385.374 69.9975C383.571 72.6693 380.966 74.7733 377.559 76.3096C374.22 77.8459 370.279 78.614 365.737 78.614C363.599 78.614 361.562 78.4136 359.625 78.0129C359.091 78.2801 358.657 78.7142 358.323 79.3154C358.056 79.8497 357.922 80.4175 357.922 81.0186C357.922 82.0205 358.289 82.8221 359.024 83.4232C359.826 83.9576 361.395 84.2248 363.733 84.2248H371.748C375.823 84.2248 379.396 84.8927 382.469 86.2286C385.541 87.5645 387.913 89.4013 389.582 91.7391C391.252 94.0769 392.087 96.7153 392.087 99.6543C392.087 105.198 389.683 109.506 384.874 112.579C380.131 115.718 373.251 117.288 364.234 117.288C357.755 117.288 352.645 116.587 348.905 115.184C345.164 113.848 342.526 111.944 340.99 109.473C339.52 107.002 338.785 103.896 338.785 100.155H353.013C353.013 101.758 353.313 103.027 353.914 103.963C354.582 104.898 355.751 105.599 357.421 106.067C359.091 106.534 361.495 106.768 364.635 106.768C368.976 106.768 371.982 106.234 373.652 105.165C375.322 104.163 376.157 102.693 376.157 100.756C376.157 99.1533 375.522 97.8842 374.253 96.9491C372.984 96.014 371.08 95.5464 368.542 95.5464H360.828C355.35 95.5464 351.242 94.5779 348.504 92.6409C345.832 90.637 344.496 88.0988 344.496 85.0263C344.496 83.0892 345.064 81.219 346.2 79.4156C347.335 77.5453 348.871 76.009 350.808 74.8067C347.469 73.0033 345.031 70.8993 343.494 68.4947C342.025 66.0233 341.29 63.0509 341.29 59.5776C341.29 53.6329 343.428 48.9239 347.702 45.4506C351.977 41.9105 357.621 40.1404 364.635 40.1404C369.978 40.274 374.487 39.7397 378.161 38.5374C381.901 37.3351 385.742 35.565 389.683 33.2272L393.39 44.9496ZM365.036 50.5604C362.564 50.5604 360.594 51.3619 359.124 52.965C357.722 54.5012 357.02 56.6387 357.02 59.3772C357.02 62.2494 357.722 64.487 359.124 66.0901C360.594 67.6263 362.564 68.3945 365.036 68.3945C367.641 68.3945 369.611 67.6263 370.947 66.0901C372.35 64.5538 373.051 62.2494 373.051 59.1768C373.051 53.4325 370.379 50.5604 365.036 50.5604Z" fill="#149B5F"/>
<path d="M433.845 79.6159C433.845 81.6198 434.112 83.0892 434.647 84.0244C435.248 84.9595 436.183 85.6608 437.452 86.1284L434.146 96.4481C430.873 96.181 428.201 95.4796 426.131 94.3441C424.127 93.2086 422.524 91.3718 421.321 88.8336C417.848 94.1103 412.504 96.7487 405.291 96.7487C400.014 96.7487 395.806 95.2124 392.667 92.1399C389.527 89.0674 387.958 85.0597 387.958 80.1169C387.958 74.3058 390.095 69.864 394.37 66.7914C398.645 63.7189 404.823 62.1826 412.905 62.1826H418.316V59.8782C418.316 56.7388 417.648 54.6014 416.312 53.4659C414.976 52.2636 412.638 51.6625 409.298 51.6625C407.562 51.6625 405.458 51.9297 402.986 52.464C400.515 52.9316 397.977 53.5995 395.372 54.4678L391.765 44.0479C395.105 42.7788 398.511 41.8103 401.984 41.1424C405.524 40.4744 408.797 40.1404 411.803 40.1404C419.418 40.1404 424.995 41.7101 428.535 44.8494C432.075 47.9888 433.845 52.6978 433.845 58.9765V79.6159ZM409.899 85.4271C411.636 85.4271 413.206 84.9929 414.608 84.1246C416.078 83.2562 417.314 82.0205 418.316 80.4175V70.8993H414.408C410.801 70.8993 408.096 71.5338 406.293 72.8029C404.556 74.072 403.688 76.0424 403.688 78.7142C403.688 80.8516 404.222 82.5215 405.291 83.7238C406.426 84.8593 407.962 85.4271 409.899 85.4271Z" fill="#149B5F"/>
<path d="M45.5393 80.1169L42.0326 95.0454H25L45.9401 25.6127H65.8782L86.8182 95.0454H69.3849L65.8782 80.1169H45.5393ZM55.6586 37.5355L48.3447 68.1941H62.9726L55.6586 37.5355Z" stroke="white" stroke-width="30" mask="url(#path-1-outside-1)"/>
<path d="M102.332 40.1404C106.14 40.1404 109.713 40.7082 113.053 41.8437C116.393 42.9792 119.331 44.5823 121.87 46.6529L116.059 55.6701C111.784 52.8648 107.576 51.4621 103.434 51.4621C101.097 51.4621 99.3599 51.8295 98.2244 52.5642C97.0889 53.2321 96.5212 54.2007 96.5212 55.4698C96.5212 56.4717 96.755 57.3066 97.2225 57.9745C97.7569 58.5757 98.7922 59.2102 100.328 59.8782C101.865 60.5461 104.236 61.3477 107.442 62.2828C112.986 63.8859 117.094 65.9899 119.766 68.5949C122.504 71.133 123.873 74.6732 123.873 79.2152C123.873 82.8221 122.838 85.9614 120.768 88.6332C118.697 91.2382 115.858 93.242 112.251 94.6447C108.644 96.0474 104.637 96.7487 100.228 96.7487C95.753 96.7487 91.5784 96.0474 87.7043 94.6447C83.897 93.242 80.6575 91.305 77.9857 88.8336L85.8007 80.1169C87.8045 81.7868 90.0087 83.0892 92.4133 84.0244C94.8179 84.9595 97.2559 85.4271 99.7273 85.4271C102.199 85.4271 104.102 84.9929 105.438 84.1246C106.841 83.2562 107.542 82.0539 107.542 80.5177C107.542 79.2486 107.275 78.2467 106.741 77.5119C106.206 76.7104 105.171 76.009 103.635 75.4079C102.099 74.7399 99.6605 73.9384 96.3208 73.0033C91.044 71.467 87.1032 69.3296 84.4982 66.591C81.8932 63.8525 80.5907 60.4459 80.5907 56.3715C80.5907 53.2989 81.459 50.5604 83.1957 48.1558C84.9991 45.6844 87.5373 43.7473 90.8102 42.3447C94.15 40.8752 97.9907 40.1404 102.332 40.1404Z" stroke="white" stroke-width="30" mask="url(#path-1-outside-1)"/>
<path d="M157.377 92.5407C155.44 93.8765 153.169 94.9119 150.564 95.6466C148.026 96.3813 145.488 96.7487 142.95 96.7487C131.328 96.6819 125.516 90.2697 125.516 77.5119V52.8648H118.002V41.8437H125.516V30.3217L141.347 28.5182V41.8437H153.57L151.867 52.8648H141.347V77.3115C141.347 79.7829 141.748 81.553 142.549 82.6217C143.351 83.6904 144.62 84.2248 146.356 84.2248C148.227 84.2248 150.13 83.6236 152.067 82.4213L157.377 92.5407Z" stroke="white" stroke-width="30" mask="url(#path-1-outside-1)"/>
<path d="M184.003 95.1456C181.865 102.025 178.358 107.302 173.482 110.976C168.673 114.716 162.194 116.82 154.045 117.288L152.342 106.167C157.418 105.499 161.159 104.363 163.563 102.76C166.035 101.157 168.005 98.5856 169.475 95.0454H164.064L147.833 41.8437H164.666L174.184 84.9261L184.604 41.8437H200.935L184.003 95.1456Z" stroke="white" stroke-width="30" mask="url(#path-1-outside-1)"/>
<path d="M198.488 95.0454V20.7033L214.318 19V95.0454H198.488ZM248.484 95.0454H230.65L214.819 65.9899L231.05 41.8437H247.181L231.05 65.1883L248.484 95.0454Z" stroke="white" stroke-width="30" mask="url(#path-1-outside-1)"/>
<path d="M275.611 40.1404C282.09 40.1404 287.033 42.6118 290.44 47.5546C293.913 52.4974 295.65 59.4774 295.65 68.4947C295.65 73.9718 294.781 78.8478 293.045 83.1226C291.375 87.3975 288.937 90.7372 285.731 93.1418C282.591 95.5464 278.851 96.7487 274.509 96.7487C271.57 96.7487 268.899 96.181 266.494 95.0454C264.156 93.8432 262.186 92.1399 260.583 89.9357L259.781 95.0454H245.754V20.7033L261.585 19V47.254C263.121 45.1166 265.158 43.4134 267.696 42.1443C270.234 40.8084 272.873 40.1404 275.611 40.1404ZM270.001 85.2267C276.146 85.2267 279.218 79.6493 279.218 68.4947C279.218 62.216 278.484 57.8744 277.014 55.4698C275.545 52.9984 273.441 51.7627 270.702 51.7627C267.095 51.7627 264.056 53.8333 261.585 57.9745V80.0167C263.722 83.49 266.527 85.2267 270.001 85.2267Z" stroke="white" stroke-width="30" mask="url(#path-1-outside-1)"/>
<path d="M339.802 79.6159C339.802 81.6198 340.069 83.0892 340.604 84.0244C341.205 84.9595 342.14 85.6608 343.409 86.1284L340.103 96.4481C336.83 96.181 334.158 95.4796 332.087 94.3441C330.084 93.2086 328.48 91.3718 327.278 88.8336C323.805 94.1103 318.461 96.7487 311.248 96.7487C305.971 96.7487 301.763 95.2124 298.623 92.1399C295.484 89.0674 293.914 85.0597 293.914 80.1169C293.914 74.3058 296.052 69.864 300.327 66.7914C304.601 63.7189 310.78 62.1826 318.862 62.1826H324.272V59.8782C324.272 56.7388 323.604 54.6014 322.269 53.4659C320.933 52.2636 318.595 51.6625 315.255 51.6625C313.519 51.6625 311.414 51.9297 308.943 52.464C306.472 52.9316 303.934 53.5995 301.329 54.4678L297.722 44.0479C301.061 42.7788 304.468 41.8103 307.941 41.1424C311.481 40.4744 314.754 40.1404 317.76 40.1404C325.375 40.1404 330.952 41.7101 334.492 44.8494C338.032 47.9888 339.802 52.6978 339.802 58.9765V79.6159ZM315.856 85.4271C317.593 85.4271 319.163 84.9929 320.565 84.1246C322.035 83.2562 323.271 82.0205 324.272 80.4175V70.8993H320.365C316.758 70.8993 314.053 71.5338 312.249 72.8029C310.513 74.072 309.644 76.0424 309.644 78.7142C309.644 80.8516 310.179 82.5215 311.248 83.7238C312.383 84.8593 313.919 85.4271 315.856 85.4271Z" stroke="white" stroke-width="30" mask="url(#path-1-outside-1)"/>
<path d="M393.39 44.9496C389.916 46.3523 384.807 47.0537 378.06 47.0537C381.534 48.5231 384.072 50.3266 385.675 52.464C387.278 54.6014 388.08 57.3734 388.08 60.7799C388.08 64.1864 387.178 67.259 385.374 69.9975C383.571 72.6693 380.966 74.7733 377.559 76.3096C374.22 77.8459 370.279 78.614 365.737 78.614C363.599 78.614 361.562 78.4136 359.625 78.0129C359.091 78.2801 358.657 78.7142 358.323 79.3154C358.056 79.8497 357.922 80.4175 357.922 81.0186C357.922 82.0205 358.289 82.8221 359.024 83.4232C359.826 83.9576 361.395 84.2248 363.733 84.2248H371.748C375.823 84.2248 379.396 84.8927 382.469 86.2286C385.541 87.5645 387.913 89.4013 389.582 91.7391C391.252 94.0769 392.087 96.7153 392.087 99.6543C392.087 105.198 389.683 109.506 384.874 112.579C380.131 115.718 373.251 117.288 364.234 117.288C357.755 117.288 352.645 116.587 348.905 115.184C345.164 113.848 342.526 111.944 340.99 109.473C339.52 107.002 338.785 103.896 338.785 100.155H353.013C353.013 101.758 353.313 103.027 353.914 103.963C354.582 104.898 355.751 105.599 357.421 106.067C359.091 106.534 361.495 106.768 364.635 106.768C368.976 106.768 371.982 106.234 373.652 105.165C375.322 104.163 376.157 102.693 376.157 100.756C376.157 99.1533 375.522 97.8842 374.253 96.9491C372.984 96.014 371.08 95.5464 368.542 95.5464H360.828C355.35 95.5464 351.242 94.5779 348.504 92.6409C345.832 90.637 344.496 88.0988 344.496 85.0263C344.496 83.0892 345.064 81.219 346.2 79.4156C347.335 77.5453 348.871 76.009 350.808 74.8067C347.469 73.0033 345.031 70.8993 343.494 68.4947C342.025 66.0233 341.29 63.0509 341.29 59.5776C341.29 53.6329 343.428 48.9239 347.702 45.4506C351.977 41.9105 357.621 40.1404 364.635 40.1404C369.978 40.274 374.487 39.7397 378.161 38.5374C381.901 37.3351 385.742 35.565 389.683 33.2272L393.39 44.9496ZM365.036 50.5604C362.564 50.5604 360.594 51.3619 359.124 52.965C357.722 54.5012 357.02 56.6387 357.02 59.3772C357.02 62.2494 357.722 64.487 359.124 66.0901C360.594 67.6263 362.564 68.3945 365.036 68.3945C367.641 68.3945 369.611 67.6263 370.947 66.0901C372.35 64.5538 373.051 62.2494 373.051 59.1768C373.051 53.4325 370.379 50.5604 365.036 50.5604Z" stroke="white" stroke-width="30" mask="url(#path-1-outside-1)"/>
<path d="M433.845 79.6159C433.845 81.6198 434.112 83.0892 434.647 84.0244C435.248 84.9595 436.183 85.6608 437.452 86.1284L434.146 96.4481C430.873 96.181 428.201 95.4796 426.131 94.3441C424.127 93.2086 422.524 91.3718 421.321 88.8336C417.848 94.1103 412.504 96.7487 405.291 96.7487C400.014 96.7487 395.806 95.2124 392.667 92.1399C389.527 89.0674 387.958 85.0597 387.958 80.1169C387.958 74.3058 390.095 69.864 394.37 66.7914C398.645 63.7189 404.823 62.1826 412.905 62.1826H418.316V59.8782C418.316 56.7388 417.648 54.6014 416.312 53.4659C414.976 52.2636 412.638 51.6625 409.298 51.6625C407.562 51.6625 405.458 51.9297 402.986 52.464C400.515 52.9316 397.977 53.5995 395.372 54.4678L391.765 44.0479C395.105 42.7788 398.511 41.8103 401.984 41.1424C405.524 40.4744 408.797 40.1404 411.803 40.1404C419.418 40.1404 424.995 41.7101 428.535 44.8494C432.075 47.9888 433.845 52.6978 433.845 58.9765V79.6159ZM409.899 85.4271C411.636 85.4271 413.206 84.9929 414.608 84.1246C416.078 83.2562 417.314 82.0205 418.316 80.4175V70.8993H414.408C410.801 70.8993 408.096 71.5338 406.293 72.8029C404.556 74.072 403.688 76.0424 403.688 78.7142C403.688 80.8516 404.222 82.5215 405.291 83.7238C406.426 84.8593 407.962 85.4271 409.899 85.4271Z" stroke="white" stroke-width="30" mask="url(#path-1-outside-1)"/>
<g clip-path="url(#clip0)">
<path d="M313.788 50.5071C322.04 56.2393 331.47 54.9763 331.47 55.0734C331.569 55.2678 325.085 47.3009 315.655 48.7583C319.289 46.0379 323.12 43.5118 327.05 41.3744C326.853 40.8886 326.559 40.5972 326.362 40.1114C317.325 44.9692 309.073 51.673 302 60.1256C302.393 60.3199 302.688 60.7085 303.081 60.9028C306.322 57.0166 309.957 53.519 313.788 50.3128C313.69 50.5071 313.69 50.5071 313.788 50.5071ZM339.919 30.9787C342.08 27.5782 342.276 24.372 342.276 22.8175C340.999 22.9147 331.372 25.7322 328.72 33.4076C328.032 35.1564 327.934 36.7109 328.032 38.0711C328.032 38.1682 328.032 38.4597 328.032 38.5569C328.13 39.1398 328.229 39.7227 328.425 40.2085C329.309 39.7227 335.4 37.4881 339.231 32.0474C339.526 31.6588 339.722 31.3673 339.919 30.9787ZM343.357 36.0308C342.964 35.8365 342.571 35.545 342.178 35.4479C341.49 35.2535 340.901 35.0592 340.312 34.9621C337.856 37.5853 335.203 39.3341 333.14 40.5972C333.533 40.7915 333.828 41.0829 334.319 41.1801C341.097 44.1919 347.876 42.0545 348.956 41.8602C348.269 40.6943 346.795 37.7796 343.357 36.0308ZM354.949 27.6754C357.601 24.5663 358.387 21.5545 358.682 20.0972C357.503 20.0972 349.644 20.7772 345.125 25.9265C344.634 27.7725 343.946 29.8128 342.571 32.0474C342.473 32.2417 342.178 32.5332 342.08 32.7275C341.687 33.2133 341.49 33.5047 341.294 33.8934C341.49 33.8934 341.785 33.9905 341.982 34.0877C342.375 34.1848 342.669 34.282 343.062 34.4763C345.223 33.8934 350.135 32.436 354.064 28.6469C354.359 28.3554 354.556 28.064 354.949 27.6754ZM357.306 33.2133C356.913 33.019 356.619 32.7275 356.127 32.5332C355.538 32.1445 355.047 31.9502 354.457 31.7559C351.707 33.8934 348.76 35.1564 346.304 36.0308C346.697 36.4194 346.992 36.6137 347.384 36.8081C353.573 41.0829 360.45 40.1114 361.629 40.1114C361.432 38.5569 360.45 35.6422 357.306 33.2133ZM369.094 27.7725C369.487 27.5782 369.782 27.2867 370.273 26.9953C373.417 24.4692 374.694 21.5545 375.185 20.0972C374.104 20 366.147 19.3199 360.843 23.5948C360.057 25.4408 358.976 27.2867 357.208 29.2299C357.012 29.4242 356.815 29.6185 356.619 29.7156C356.226 30.1043 355.931 30.3957 355.538 30.7844C355.734 30.7844 356.029 30.9787 356.226 31.173C356.619 31.2701 356.913 31.5616 357.11 31.6588C359.566 31.4645 364.576 30.8815 369.094 27.7725ZM371.648 32.8246C371.256 32.6303 370.961 32.2417 370.568 32.0474C370.077 31.5616 369.684 31.2701 369.094 30.8815C365.951 32.5332 362.906 33.3104 360.548 33.7962C360.744 34.1848 361.137 34.3791 361.334 34.6706C366.54 39.8199 373.613 40.2085 374.792 40.3057C374.596 38.9455 374.203 35.7393 371.648 32.8246ZM386.678 22.1374C386.187 22.1374 385.893 22.1374 385.401 22.1374C384.517 22.0403 383.338 22.1374 382.258 22.2346C381.767 22.3318 381.374 22.3318 380.883 22.4289C379.507 22.6232 377.936 23.2062 376.658 23.8863C375.578 25.5379 374.104 27.1896 372.14 28.7441C371.943 28.9384 371.648 29.1327 371.452 29.327C371.059 29.5213 370.666 29.8128 370.273 30.0071C370.47 30.2014 370.764 30.3957 370.863 30.4929C371.256 30.6872 371.452 30.9787 371.747 31.2701C373.908 31.3673 379.016 31.7559 384.026 29.5213C384.419 29.327 384.812 29.0355 385.205 28.8412C387.268 27.7725 388.643 26.5095 389.724 25.2464C389.822 25.1493 389.92 25.0521 390.117 24.8578C390.313 24.955 390.411 24.8578 390.411 24.6635C390.608 24.2749 390.903 24.0806 391.001 23.7891C391.197 23.5948 391.394 23.3033 391.492 23.109H391.394C391.197 23.0118 390.903 23.0118 390.706 22.9147C390.313 22.8175 390.018 22.8175 389.625 22.7204C388.84 22.5261 387.759 22.3318 386.678 22.1374ZM385.696 35.0592C385.5 34.6706 385.205 34.3791 384.91 33.9905C384.517 33.4076 384.026 33.1161 383.535 32.6303C380.195 33.7962 377.051 33.9905 374.497 33.9905C374.694 34.3791 374.988 34.6706 375.185 35.0592C379.507 40.9858 386.285 42.6374 387.464 43.0261C387.661 41.4716 387.857 38.3626 385.696 35.0592ZM402.494 27.0924C401.807 26.9953 401.021 26.7038 400.137 26.6066C398.86 26.4123 397.484 26.4123 396.109 26.4123C395.618 26.5095 395.225 26.5095 394.734 26.6066C393.948 26.7038 393.064 26.8009 392.278 27.1896C391.001 28.5498 389.233 29.9099 387.071 31.0758C386.678 31.2701 386.482 31.4644 386.285 31.5616C385.794 31.6588 385.5 31.9502 385.008 32.1445C385.205 32.2417 385.401 32.5332 385.598 32.6303C385.794 33.019 386.089 33.2133 386.285 33.5047C388.447 34.0877 393.358 35.2535 398.663 33.9905C399.154 33.8934 399.547 33.7962 400.038 33.6019C402.2 32.8246 403.87 31.8531 405.147 30.8815C405.245 30.7844 405.343 30.6872 405.54 30.4929C405.638 30.3957 405.736 30.2986 405.932 30.2986C406.325 29.9099 406.522 29.7156 406.718 29.5213C406.915 29.327 407.111 29.0355 407.21 28.9384C407.21 28.9384 407.21 28.8412 407.111 28.8412C407.013 28.8412 406.718 28.7441 406.522 28.4526C406.129 28.3554 405.834 28.2583 405.441 28.064C404.557 27.7725 403.673 27.481 402.494 27.0924ZM399.351 39.6256C399.154 39.1398 398.86 38.8483 398.663 38.4597C398.467 37.8768 398.074 37.2938 397.583 36.8081C394.144 37.2938 390.804 36.9052 388.447 36.6137C388.545 37.0024 388.84 37.2938 388.938 37.7796C392.081 44.4834 398.663 47.2038 399.744 47.7867C400.137 46.4265 400.824 43.2204 399.351 39.6256ZM417.426 34.9621C416.738 34.7678 415.952 34.3791 415.068 34.0877C413.889 33.6019 412.514 33.3104 411.139 33.2133C410.648 33.1161 410.255 33.1161 409.764 33.1161C408.978 33.1161 407.995 33.1161 407.21 33.2133C405.736 34.3791 403.771 35.3507 401.315 36.2251C400.922 36.3223 400.726 36.3223 400.431 36.4194C399.94 36.5166 399.645 36.6137 399.154 36.8081C399.252 37.0024 399.351 37.2938 399.645 37.391C399.744 37.7796 400.038 38.0711 400.137 38.4597C402.2 39.3341 407.013 41.4716 412.514 41.1801C413.005 41.1801 413.398 41.0829 413.889 41.0829C416.247 40.6943 418.114 40.0142 419.489 39.3341C419.882 39.237 420.078 38.9455 420.275 38.8483C420.668 38.654 420.962 38.3626 421.159 38.2654C421.355 38.0711 421.65 37.8768 421.748 37.6825C421.748 37.6825 421.748 37.6825 421.65 37.5853C421.552 37.5853 421.257 37.391 421.061 37.1967C420.864 37.0024 420.471 36.7109 420.177 36.5166C419.391 35.9336 418.507 35.4479 417.426 34.9621ZM414.872 48.0782C415.265 48.6611 415.559 49.3412 415.952 49.9242C416.149 50.3128 416.345 50.6043 416.542 50.9929C417.328 52.0616 418.015 52.936 418.899 53.7133C419.292 54.1019 419.587 54.3934 419.98 54.5877C420.078 54.782 420.373 54.9763 420.471 55.0734C421.355 55.8507 422.239 56.4336 423.025 57.0166C423.222 57.1137 423.418 57.2109 423.615 57.4052C424.106 57.7938 424.499 58.0853 425.088 58.2796C425.285 58.4739 425.678 58.6682 425.972 58.8625C426.856 59.3483 427.741 59.737 428.428 60.0284C428.625 60.1256 428.821 60.2227 429.018 60.417C429.509 60.5142 429.804 60.8057 430.098 60.8057C430.098 60.6114 430.098 60.1256 430.098 59.737C430.098 59.5426 430 59.2512 430 59.0569C430 58.8626 430 58.4739 429.902 58.2796C429.705 56.4336 429.018 54.1019 427.348 51.7701C422.436 44.6777 414.577 44.2891 413.693 44.2891C413.693 45.2607 414.184 46.6208 414.872 48.0782ZM411.63 45.3578C411.434 44.7749 411.139 44.1919 410.844 43.609C407.21 43.4147 404.066 42.4431 401.807 41.6659C401.905 42.0545 401.905 42.4431 402.003 42.9289C403.968 50.0213 410.157 54.1019 411.041 54.782C411.63 53.5189 412.907 50.5071 412.121 46.6208C412.023 46.2322 411.925 45.8436 411.63 45.3578Z" fill="#FFC832"/>
<path d="M313.788 50.507C322.04 56.2392 331.471 54.9762 331.471 55.0733C331.569 55.2677 325.085 47.3008 315.655 48.7582C319.29 46.0378 323.121 43.5117 327.05 41.3743L326.559 40.6942C311.627 49.8269 302.59 60.6113 302.59 60.6113L303.081 60.9999C306.323 57.1136 309.957 53.616 313.788 50.4098C313.69 50.507 313.69 50.507 313.788 50.507ZM328.229 39.6255C330.685 38.2653 333.239 36.9051 335.989 35.6421C332.649 38.5568 329.015 39.9169 328.327 40.2084C328.229 39.9169 328.229 39.8198 328.229 39.6255ZM341.785 33.116C345.224 31.7558 348.956 30.5899 352.788 29.7155C349.055 32.8245 345.027 33.9904 342.964 34.5733C342.571 34.4762 342.277 34.379 341.884 34.1847C341.687 34.0876 341.392 33.9904 341.196 33.9904C341.294 33.6989 341.589 33.3103 341.785 33.116ZM357.601 28.744C361.236 28.161 365.067 27.9667 368.996 27.9667C364.478 30.9786 359.566 31.5615 357.306 31.6587C357.11 31.5615 356.717 31.27 356.422 31.1729C356.226 31.0757 355.931 30.7842 355.735 30.7842C356.128 30.3956 356.422 30.1042 356.815 29.7155C356.913 29.6184 357.208 29.3269 357.405 29.1326C357.306 29.0354 357.503 28.9383 357.601 28.744ZM373.122 28.161C376.659 28.3553 380.097 28.8411 383.83 29.7155C378.918 31.7558 374.105 31.4643 371.845 31.3672C371.452 30.9786 371.256 30.7842 370.961 30.5899C370.863 30.4928 370.568 30.3956 370.372 30.1041C370.765 29.9098 371.158 29.6184 371.55 29.4241C371.747 29.2297 372.042 29.0354 372.238 28.8411C372.533 28.6468 372.828 28.3553 373.122 28.161ZM387.661 30.7842C390.805 31.6587 393.85 32.8245 396.895 34.379C392.278 35.0591 388.152 33.9904 386.187 33.6018C385.991 33.2132 385.696 33.0188 385.5 32.7274C385.303 32.6302 385.107 32.3387 384.91 32.2416C385.402 32.0473 385.696 31.7558 386.187 31.6587C386.384 31.5615 386.679 31.4643 386.973 31.1729C387.268 30.9786 387.366 30.8814 387.661 30.7842ZM400.726 36.225C403.379 37.5852 405.933 39.1397 408.585 40.8885C404.754 40.3056 401.61 38.9454 400.039 38.2653C399.94 37.8767 399.646 37.5852 399.547 37.1966C399.351 37.0994 399.154 36.8079 399.056 36.6136C399.547 36.5165 399.842 36.4193 400.333 36.225C400.53 36.3222 400.628 36.3222 400.726 36.225ZM413.497 44.1918C420.275 49.244 425.58 54.3932 430 59.4454V59.6397C430 60.0283 430 60.4169 430 60.7084C429.804 60.7084 429.411 60.5141 428.92 60.3198C428.723 60.2226 428.527 60.1255 428.33 59.9312C427.643 59.7368 426.857 59.2511 425.874 58.7653C425.481 58.571 425.187 58.3767 424.99 58.1823C424.401 57.988 423.91 57.5994 423.517 57.3079C423.32 57.2108 423.124 57.1136 422.927 56.9193C422.141 56.3364 421.257 55.7534 420.373 54.9762C420.275 54.879 419.98 54.7819 419.882 54.4904C419.489 54.2961 419.194 53.9075 418.801 53.616C418.016 52.8387 417.328 51.8672 416.444 50.8956C416.247 50.507 416.051 50.2155 415.854 49.8269C415.461 49.244 415.167 48.5639 414.774 47.9809C414.184 46.6207 413.693 45.2605 413.497 44.1918ZM343.357 36.0307C342.964 35.8364 342.571 35.5449 342.178 35.4478C341.491 35.2534 340.901 35.0591 340.312 34.962C337.856 37.5852 335.204 39.334 333.141 40.597C333.534 40.7914 333.828 41.0828 334.319 41.18C341.098 44.1918 347.876 42.0544 348.956 41.8601C348.269 40.6942 346.795 37.7795 343.357 36.0307ZM357.306 33.2132C356.913 33.0188 356.619 32.7274 356.128 32.5331C355.538 32.1444 355.047 31.9501 354.458 31.7558C351.707 33.8932 348.76 35.1563 346.304 36.0307C346.697 36.4193 346.992 36.6136 347.385 36.8079C353.574 41.0828 360.45 40.1113 361.629 40.1113C361.432 38.5568 360.45 35.6421 357.306 33.2132ZM371.649 32.8245C371.256 32.6302 370.961 32.2416 370.568 32.0473C370.077 31.5615 369.684 31.27 369.095 30.8814C365.951 32.5331 362.906 33.3103 360.548 33.7961C360.745 34.1847 361.138 34.379 361.334 34.6705C366.541 39.8198 373.613 40.2084 374.792 40.3056C374.596 38.9454 374.203 35.7392 371.649 32.8245ZM385.696 35.0591C385.5 34.6705 385.205 34.379 384.91 33.9904C384.517 33.4075 384.026 33.116 383.535 32.6302C380.195 33.7961 377.052 33.9904 374.498 33.9904C374.694 34.379 374.989 34.6705 375.185 35.0591C379.508 40.9857 386.286 42.6373 387.465 43.026C387.661 41.4714 387.857 38.3624 385.696 35.0591ZM399.351 39.6255C399.154 39.1397 398.86 38.8482 398.663 38.4596C398.467 37.8767 398.074 37.2937 397.583 36.8079C394.145 37.2937 390.805 36.9051 388.447 36.6136C388.545 37.0023 388.84 37.2937 388.938 37.7795C392.082 44.4833 398.663 47.2037 399.744 47.7866C400.137 46.4264 400.824 43.2203 399.351 39.6255ZM411.63 45.3577C411.434 44.7748 411.139 44.1918 410.844 43.6089C407.21 43.4146 404.066 42.443 401.807 41.6658C401.905 42.0544 401.905 42.443 402.003 42.9288C403.968 50.0212 410.157 54.1018 411.041 54.7819C411.63 53.5188 412.907 50.507 412.121 46.6207C412.023 46.2321 411.925 45.8435 411.63 45.3577Z" fill="#FFC832"/>
</g>
</g>
<defs>
<filter id="filter0_d" x="0.808868" y="0.2995" width="459.312" height="138.745" filterUnits="userSpaceOnUse" color-interpolation-filters="sRGB">
<feFlood flood-opacity="0" result="BackgroundImageFix"/>
<feColorMatrix in="SourceAlpha" type="matrix" values="0 0 0 0 0 0 0 0 0 0 0 0 0 0 0 0 0 0 127 0"/>
<feOffset dy="2"/>
<feGaussianBlur stdDeviation="2"/>
<feColorMatrix type="matrix" values="0 0 0 0 0 0 0 0 0 0 0 0 0 0 0 0 0 0 0.05 0"/>
<feBlend mode="normal" in2="BackgroundImageFix" result="effect1_dropShadow"/>
<feBlend mode="normal" in="SourceGraphic" in2="effect1_dropShadow" result="shape"/>
</filter>
<clipPath id="clip0">
<rect x="302" y="20" width="128" height="41" fill="white"/>
</clipPath>
</defs>
</svg>
