<svg width="732" height="265" viewBox="0 0 732 265" fill="none" xmlns="http://www.w3.org/2000/svg">
<g filter="url(#filter0_d)">
<path d="M57.72 144.16L52.12 168H24.92L58.36 57.12H90.2L123.64 168H95.8L90.2 144.16H57.72ZM73.88 76.16L62.2 125.12H85.56L73.88 76.16ZM148.415 80.32C154.495 80.32 160.202 81.2267 165.535 83.04C170.868 84.8533 175.562 87.4133 179.615 90.72L170.335 105.12C163.508 100.64 156.788 98.4 150.175 98.4C146.442 98.4 143.668 98.9867 141.855 100.16C140.042 101.227 139.135 102.773 139.135 104.8C139.135 106.4 139.508 107.733 140.255 108.8C141.108 109.76 142.762 110.773 145.215 111.84C147.668 112.907 151.455 114.187 156.575 115.68C165.428 118.24 171.988 121.6 176.255 125.76C180.628 129.813 182.815 135.467 182.815 142.72C182.815 148.48 181.162 153.493 177.855 157.76C174.548 161.92 170.015 165.12 164.255 167.36C158.495 169.6 152.095 170.72 145.055 170.72C137.908 170.72 131.242 169.6 125.055 167.36C118.975 165.12 113.802 162.027 109.535 158.08L122.015 144.16C125.215 146.827 128.735 148.907 132.575 150.4C136.415 151.893 140.308 152.64 144.255 152.64C148.202 152.64 151.242 151.947 153.375 150.56C155.615 149.173 156.735 147.253 156.735 144.8C156.735 142.773 156.308 141.173 155.455 140C154.602 138.72 152.948 137.6 150.495 136.64C148.042 135.573 144.148 134.293 138.815 132.8C130.388 130.347 124.095 126.933 119.935 122.56C115.775 118.187 113.695 112.747 113.695 106.24C113.695 101.333 115.082 96.96 117.855 93.12C120.735 89.1733 124.788 86.08 130.015 83.84C135.348 81.4933 141.482 80.32 148.415 80.32ZM236.319 164C233.225 166.133 229.599 167.787 225.439 168.96C221.385 170.133 217.332 170.72 213.279 170.72C194.719 170.613 185.439 160.373 185.439 140V100.64H173.439V83.04H185.439V64.64L210.719 61.76V83.04H230.239L227.519 100.64H210.719V139.68C210.719 143.627 211.359 146.453 212.639 148.16C213.919 149.867 215.945 150.72 218.719 150.72C221.705 150.72 224.745 149.76 227.839 147.84L236.319 164ZM278.838 168.16C275.424 179.147 269.824 187.573 262.038 193.44C254.358 199.413 244.011 202.773 230.998 203.52L228.278 185.76C236.384 184.693 242.358 182.88 246.198 180.32C250.144 177.76 253.291 173.653 255.638 168H246.998L221.078 83.04H247.958L263.158 151.84L279.798 83.04H305.878L278.838 168.16ZM301.97 168V49.28L327.25 46.56V168H301.97ZM381.81 168H353.33L328.05 121.6L353.97 83.04H379.73L353.97 120.32L381.81 168ZM425.131 80.32C435.478 80.32 443.371 84.2667 448.811 92.16C454.358 100.053 457.131 111.2 457.131 125.6C457.131 134.347 455.745 142.133 452.971 148.96C450.305 155.787 446.411 161.12 441.291 164.96C436.278 168.8 430.305 170.72 423.371 170.72C418.678 170.72 414.411 169.813 410.571 168C406.838 166.08 403.691 163.36 401.131 159.84L399.851 168H377.451V49.28L402.731 46.56V91.68C405.185 88.2667 408.438 85.5467 412.491 83.52C416.545 81.3867 420.758 80.32 425.131 80.32ZM416.171 152.32C425.985 152.32 430.891 143.413 430.891 125.6C430.891 115.573 429.718 108.64 427.371 104.8C425.025 100.853 421.665 98.88 417.291 98.88C411.531 98.88 406.678 102.187 402.731 108.8V144C406.145 149.547 410.625 152.32 416.171 152.32ZM527.64 143.36C527.64 146.56 528.067 148.907 528.92 150.4C529.88 151.893 531.373 153.013 533.4 153.76L528.12 170.24C522.893 169.813 518.627 168.693 515.32 166.88C512.12 165.067 509.56 162.133 507.64 158.08C502.093 166.507 493.56 170.72 482.04 170.72C473.613 170.72 466.893 168.267 461.88 163.36C456.867 158.453 454.36 152.053 454.36 144.16C454.36 134.88 457.773 127.787 464.6 122.88C471.427 117.973 481.293 115.52 494.2 115.52H502.84V111.84C502.84 106.827 501.773 103.413 499.64 101.6C497.507 99.68 493.773 98.72 488.44 98.72C485.667 98.72 482.307 99.1467 478.36 100C474.413 100.747 470.36 101.813 466.2 103.2L460.44 86.56C465.773 84.5333 471.213 82.9867 476.76 81.92C482.413 80.8533 487.64 80.32 492.44 80.32C504.6 80.32 513.507 82.8267 519.16 87.84C524.813 92.8533 527.64 100.373 527.64 110.4V143.36ZM489.4 152.64C492.173 152.64 494.68 151.947 496.92 150.56C499.267 149.173 501.24 147.2 502.84 144.64V129.44H496.6C490.84 129.44 486.52 130.453 483.64 132.48C480.867 134.507 479.48 137.653 479.48 141.92C479.48 145.333 480.333 148 482.04 149.92C483.853 151.733 486.307 152.64 489.4 152.64ZM613.216 88C607.67 90.24 599.51 91.36 588.736 91.36C594.283 93.7067 598.336 96.5867 600.896 100C603.456 103.413 604.736 107.84 604.736 113.28C604.736 118.72 603.296 123.627 600.416 128C597.536 132.267 593.376 135.627 587.936 138.08C582.603 140.533 576.31 141.76 569.056 141.76C565.643 141.76 562.39 141.44 559.296 140.8C558.443 141.227 557.75 141.92 557.216 142.88C556.79 143.733 556.576 144.64 556.576 145.6C556.576 147.2 557.163 148.48 558.336 149.44C559.616 150.293 562.123 150.72 565.856 150.72H578.656C585.163 150.72 590.87 151.787 595.776 153.92C600.683 156.053 604.47 158.987 607.136 162.72C609.803 166.453 611.136 170.667 611.136 175.36C611.136 184.213 607.296 191.093 599.616 196C592.043 201.013 581.056 203.52 566.656 203.52C556.31 203.52 548.15 202.4 542.176 200.16C536.203 198.027 531.99 194.987 529.536 191.04C527.19 187.093 526.016 182.133 526.016 176.16H548.736C548.736 178.72 549.216 180.747 550.176 182.24C551.243 183.733 553.11 184.853 555.776 185.6C558.443 186.347 562.283 186.72 567.296 186.72C574.23 186.72 579.03 185.867 581.696 184.16C584.363 182.56 585.696 180.213 585.696 177.12C585.696 174.56 584.683 172.533 582.656 171.04C580.63 169.547 577.59 168.8 573.536 168.8H561.216C552.47 168.8 545.91 167.253 541.536 164.16C537.27 160.96 535.136 156.907 535.136 152C535.136 148.907 536.043 145.92 537.856 143.04C539.67 140.053 542.123 137.6 545.216 135.68C539.883 132.8 535.99 129.44 533.536 125.6C531.19 121.653 530.016 116.907 530.016 111.36C530.016 101.867 533.43 94.3467 540.256 88.8C547.083 83.1467 556.096 80.32 567.296 80.32C575.83 80.5333 583.03 79.68 588.896 77.76C594.87 75.84 601.003 73.0133 607.296 69.28L613.216 88ZM567.936 96.96C563.99 96.96 560.843 98.24 558.496 100.8C556.256 103.253 555.136 106.667 555.136 111.04C555.136 115.627 556.256 119.2 558.496 121.76C560.843 124.213 563.99 125.44 567.936 125.44C572.096 125.44 575.243 124.213 577.376 121.76C579.616 119.307 580.736 115.627 580.736 110.72C580.736 101.547 576.47 96.96 567.936 96.96ZM677.821 143.36C677.821 146.56 678.248 148.907 679.101 150.4C680.061 151.893 681.555 153.013 683.581 153.76L678.301 170.24C673.075 169.813 668.808 168.693 665.501 166.88C662.301 165.067 659.741 162.133 657.821 158.08C652.275 166.507 643.741 170.72 632.221 170.72C623.795 170.72 617.075 168.267 612.061 163.36C607.048 158.453 604.541 152.053 604.541 144.16C604.541 134.88 607.955 127.787 614.781 122.88C621.608 117.973 631.475 115.52 644.381 115.52H653.021V111.84C653.021 106.827 651.955 103.413 649.821 101.6C647.688 99.68 643.955 98.72 638.621 98.72C635.848 98.72 632.488 99.1467 628.541 100C624.595 100.747 620.541 101.813 616.381 103.2L610.621 86.56C615.955 84.5333 621.395 82.9867 626.941 81.92C632.595 80.8533 637.821 80.32 642.621 80.32C654.781 80.32 663.688 82.8267 669.341 87.84C674.995 92.8533 677.821 100.373 677.821 110.4V143.36ZM639.581 152.64C642.355 152.64 644.861 151.947 647.101 150.56C649.448 149.173 651.421 147.2 653.021 144.64V129.44H646.781C641.021 129.44 636.701 130.453 633.821 132.48C631.048 134.507 629.661 137.653 629.661 141.92C629.661 145.333 630.515 148 632.221 149.92C634.035 151.733 636.488 152.64 639.581 152.64Z" fill="#149B5F"/>
<path d="M57.72 144.16V129.16H45.8352L43.1175 140.73L57.72 144.16ZM52.12 168V183H64.0048L66.7225 171.43L52.12 168ZM24.92 168L10.5589 163.669L4.72887 183H24.92V168ZM58.36 57.12V42.12H47.2165L43.9989 52.7889L58.36 57.12ZM90.2 57.12L104.561 52.7889L101.344 42.12H90.2V57.12ZM123.64 168V183H143.831L138.001 163.669L123.64 168ZM95.8 168L81.1975 171.43L83.9152 183H95.8V168ZM90.2 144.16L104.803 140.73L102.085 129.16H90.2V144.16ZM73.88 76.16L88.4706 72.6792H59.2894L73.88 76.16ZM62.2 125.12L47.6094 121.639L43.2006 140.12H62.2V125.12ZM85.56 125.12V140.12H104.559L100.151 121.639L85.56 125.12ZM43.1175 140.73L37.5175 164.57L66.7225 171.43L72.3225 147.59L43.1175 140.73ZM52.12 153H24.92V183H52.12V153ZM39.2811 172.331L72.7211 61.4511L43.9989 52.7889L10.5589 163.669L39.2811 172.331ZM58.36 72.12H90.2V42.12H58.36V72.12ZM75.8389 61.4511L109.279 172.331L138.001 163.669L104.561 52.7889L75.8389 61.4511ZM123.64 153H95.8V183H123.64V153ZM110.403 164.57L104.803 140.73L75.5975 147.59L81.1975 171.43L110.403 164.57ZM90.2 129.16H57.72V159.16H90.2V129.16ZM59.2894 72.6792L47.6094 121.639L76.7906 128.601L88.4706 79.6408L59.2894 72.6792ZM62.2 140.12H85.56V110.12H62.2V140.12ZM100.151 121.639L88.4706 72.6792L59.2894 79.6408L70.9694 128.601L100.151 121.639ZM165.535 83.04L160.706 97.2416L165.535 83.04ZM179.615 90.72L192.224 98.8455L199.488 87.5737L189.097 79.097L179.615 90.72ZM170.335 105.12L162.105 117.661L174.75 125.959L182.944 113.246L170.335 105.12ZM141.855 100.16L149.46 113.089L149.736 112.927L150.004 112.754L141.855 100.16ZM140.255 108.8L127.967 117.402L128.466 118.115L129.044 118.765L140.255 108.8ZM145.215 111.84L139.234 125.596H139.234L145.215 111.84ZM156.575 115.68L152.375 130.08L152.392 130.085L152.408 130.09L156.575 115.68ZM176.255 125.76L165.783 136.5L165.919 136.632L166.059 136.761L176.255 125.76ZM177.855 157.76L189.597 167.094L189.655 167.021L189.711 166.949L177.855 157.76ZM164.255 167.36L169.692 181.34L164.255 167.36ZM125.055 167.36L119.869 181.435L119.909 181.45L119.948 181.464L125.055 167.36ZM109.535 158.08L98.3665 148.067L88.5078 159.063L99.3494 169.091L109.535 158.08ZM122.015 144.16L131.618 132.637L120.504 123.375L110.846 134.147L122.015 144.16ZM132.575 150.4L138.012 136.42L138.012 136.42L132.575 150.4ZM153.375 150.56L145.48 137.806L145.339 137.893L145.2 137.983L153.375 150.56ZM155.455 140L142.974 148.32L143.144 148.575L143.324 148.823L155.455 140ZM150.495 136.64L144.514 150.396L144.77 150.507L145.029 150.609L150.495 136.64ZM138.815 132.8L134.622 147.202L134.696 147.224L134.771 147.244L138.815 132.8ZM119.935 122.56L109.067 132.898L119.935 122.56ZM117.855 93.12L105.738 84.278L105.716 84.3077L105.695 84.3376L117.855 93.12ZM130.015 83.84L135.924 97.6272L135.99 97.5988L136.056 97.5697L130.015 83.84ZM148.415 95.32C152.983 95.32 157.047 95.9973 160.706 97.2416L170.364 68.8384C163.357 66.456 156.007 65.32 148.415 65.32V95.32ZM160.706 97.2416C164.478 98.524 167.568 100.25 170.133 102.343L189.097 79.097C183.555 74.5763 177.259 71.1827 170.364 68.8384L160.706 97.2416ZM167.006 82.5945L157.726 96.9945L182.944 113.246L192.224 98.8455L167.006 82.5945ZM178.565 92.5793C169.869 86.8729 160.333 83.4 150.175 83.4V113.4C153.244 113.4 157.147 114.407 162.105 117.661L178.565 92.5793ZM150.175 83.4C145.408 83.4 139.14 84.0505 133.706 87.5664L150.004 112.754C149.474 113.096 149.037 113.291 148.769 113.394C148.502 113.497 148.364 113.523 148.399 113.515C148.433 113.508 148.592 113.477 148.902 113.449C149.21 113.422 149.629 113.4 150.175 113.4V83.4ZM134.25 87.231C128.069 90.8668 124.135 97.2141 124.135 104.8H154.135C154.135 106.098 153.82 107.891 152.755 109.706C151.707 111.494 150.374 112.551 149.46 113.089L134.25 87.231ZM124.135 104.8C124.135 108.764 125.086 113.287 127.967 117.402L152.543 100.198C153.931 102.18 154.135 104.036 154.135 104.8H124.135ZM129.044 118.765C132.211 122.328 136.487 124.402 139.234 125.596L151.196 98.084C150.81 97.9161 150.516 97.7767 150.303 97.6685C150.086 97.5589 149.985 97.4979 149.973 97.491C149.957 97.4809 150.091 97.5612 150.323 97.7439C150.547 97.9203 150.969 98.2756 151.466 98.8345L129.044 118.765ZM139.234 125.596C142.589 127.055 147.119 128.547 152.375 130.08L160.775 101.28C155.791 99.8263 152.748 98.7588 151.196 98.0839L139.234 125.596ZM152.408 130.09C160.068 132.305 163.993 134.754 165.783 136.5L186.727 115.02C179.984 108.446 170.788 104.175 160.742 101.27L152.408 130.09ZM166.059 136.761C166.721 137.375 167.815 138.668 167.815 142.72H197.815C197.815 132.266 194.536 122.252 186.451 114.759L166.059 136.761ZM167.815 142.72C167.815 145.392 167.126 147.117 165.999 148.571L189.711 166.949C195.197 159.87 197.815 151.568 197.815 142.72H167.815ZM166.113 148.426C164.712 150.188 162.51 151.944 158.818 153.38L169.692 181.34C177.52 178.296 184.385 173.652 189.597 167.094L166.113 148.426ZM158.818 153.38C155.015 154.859 150.492 155.72 145.055 155.72V185.72C153.698 185.72 161.975 184.341 169.692 181.34L158.818 153.38ZM145.055 155.72C139.499 155.72 134.575 154.854 130.162 153.256L119.948 181.464C127.908 184.346 136.317 185.72 145.055 185.72V155.72ZM130.241 153.285C125.8 151.649 122.381 149.529 119.721 147.069L99.3494 169.091C105.223 174.524 112.15 178.591 119.869 181.435L130.241 153.285ZM120.704 168.093L133.184 154.173L110.846 134.147L98.3665 148.067L120.704 168.093ZM112.412 155.683C116.845 159.377 121.769 162.292 127.138 164.38L138.012 136.42C135.701 135.521 133.585 134.276 131.618 132.637L112.412 155.683ZM127.138 164.38C132.634 166.517 138.367 167.64 144.255 167.64V137.64C142.249 137.64 140.196 137.269 138.012 136.42L127.138 164.38ZM144.255 167.64C149.627 167.64 155.986 166.753 161.55 163.137L145.2 137.983C145.905 137.525 146.334 137.456 146.16 137.496C145.978 137.537 145.387 137.64 144.255 137.64V167.64ZM161.27 163.314C167.534 159.436 171.735 152.894 171.735 144.8H141.735C141.735 143.654 142.024 142.089 142.938 140.522C143.825 139.002 144.899 138.166 145.48 137.806L161.27 163.314ZM171.735 144.8C171.735 140.828 170.914 135.753 167.586 131.177L143.324 148.823C142.523 147.721 142.117 146.679 141.921 145.945C141.733 145.24 141.735 144.812 141.735 144.8H171.735ZM167.936 131.68C164.545 126.594 159.456 124.039 155.961 122.671L145.029 150.609C145.527 150.803 145.496 150.845 145.162 150.619C144.837 150.399 143.894 149.701 142.974 148.32L167.936 131.68ZM156.476 122.884C153.03 121.386 148.311 119.882 142.859 118.356L134.771 147.244C139.986 148.705 143.053 149.761 144.514 150.396L156.476 122.884ZM143.008 118.398C136.043 116.37 132.49 113.995 130.803 112.222L109.067 132.898C115.7 139.871 124.734 144.323 134.622 147.202L143.008 118.398ZM130.803 112.222C129.514 110.867 128.695 109.227 128.695 106.24H98.695C98.695 116.266 102.036 125.507 109.067 132.898L130.803 112.222ZM128.695 106.24C128.695 104.366 129.157 103.09 130.015 101.902L105.695 84.3376C101.006 90.8301 98.695 98.301 98.695 106.24H128.695ZM129.972 101.962C131.02 100.526 132.762 98.9822 135.924 97.6272L124.106 70.0528C116.815 73.1778 110.45 77.8206 105.738 84.278L129.972 101.962ZM136.056 97.5697C139.159 96.2043 143.173 95.32 148.415 95.32V65.32C139.79 65.32 131.537 66.7824 123.974 70.1103L136.056 97.5697ZM236.319 164L244.835 176.348L255.778 168.801L249.601 157.03L236.319 164ZM225.439 168.96L221.367 154.523L221.317 154.537L221.268 154.552L225.439 168.96ZM213.279 170.72L213.193 185.72L213.236 185.72H213.279V170.72ZM185.439 100.64H200.439V85.64H185.439V100.64ZM173.439 100.64H158.439V115.64H173.439V100.64ZM173.439 83.04V68.04H158.439V83.04H173.439ZM185.439 83.04V98.04H200.439V83.04H185.439ZM185.439 64.64L183.741 49.7364L170.439 51.2518V64.64H185.439ZM210.719 61.76H225.719V44.9541L209.021 46.8564L210.719 61.76ZM210.719 83.04H195.719V98.04H210.719V83.04ZM230.239 83.04L245.063 85.331L247.735 68.04H230.239V83.04ZM227.519 100.64V115.64H240.379L242.343 102.931L227.519 100.64ZM210.719 100.64V85.64H195.719V100.64H210.719ZM212.639 148.16L224.639 139.16L212.639 148.16ZM227.839 147.84L241.121 140.87L233.629 126.592L219.928 135.095L227.839 147.84ZM227.803 151.652C226.253 152.721 224.175 153.731 221.367 154.523L229.511 183.397C235.023 181.842 240.198 179.546 244.835 176.348L227.803 151.652ZM221.268 154.552C218.514 155.349 215.864 155.72 213.279 155.72V185.72C218.8 185.72 224.257 184.918 229.61 183.368L221.268 154.552ZM213.365 155.72C206.782 155.682 204.456 153.927 203.514 152.887C202.334 151.585 200.439 148.195 200.439 140H170.439C170.439 152.178 173.184 164.095 181.284 173.033C189.621 182.233 201.215 185.651 213.193 185.72L213.365 155.72ZM200.439 140V100.64H170.439V140H200.439ZM185.439 85.64H173.439V115.64H185.439V85.64ZM188.439 100.64V83.04H158.439V100.64H188.439ZM173.439 98.04H185.439V68.04H173.439V98.04ZM200.439 83.04V64.64H170.439V83.04H200.439ZM187.137 79.5436L212.417 76.6636L209.021 46.8564L183.741 49.7364L187.137 79.5436ZM195.719 61.76V83.04H225.719V61.76H195.719ZM210.719 98.04H230.239V68.04H210.719V98.04ZM215.415 80.749L212.695 98.349L242.343 102.931L245.063 85.331L215.415 80.749ZM227.519 85.64H210.719V115.64H227.519V85.64ZM195.719 100.64V139.68H225.719V100.64H195.719ZM195.719 139.68C195.719 144.476 196.346 151.437 200.639 157.16L224.639 139.16C225.15 139.842 225.448 140.435 225.611 140.82C225.773 141.202 225.825 141.434 225.828 141.448C225.832 141.464 225.802 141.333 225.772 141.019C225.743 140.708 225.719 140.268 225.719 139.68H195.719ZM200.639 157.16C205.568 163.732 212.774 165.72 218.719 165.72V135.72C218.828 135.72 219.697 135.732 220.94 136.255C222.298 136.828 223.633 137.818 224.639 139.16L200.639 157.16ZM218.719 165.72C225.057 165.72 230.802 163.655 235.749 160.585L219.928 135.095C219.296 135.488 218.895 135.641 218.722 135.696C218.564 135.746 218.58 135.72 218.719 135.72V165.72ZM214.556 154.81L223.036 170.97L249.601 157.03L241.121 140.87L214.556 154.81ZM278.838 168.16L264.542 163.619L264.527 163.664L264.513 163.71L278.838 168.16ZM262.038 193.44L253.011 181.46L252.919 181.529L252.828 181.6L262.038 193.44ZM230.998 203.52L216.17 205.791L218.236 219.277L231.857 218.495L230.998 203.52ZM228.278 185.76L226.321 170.888L211.131 172.887L213.45 188.031L228.278 185.76ZM246.198 180.32L238.035 167.736L237.955 167.787L237.877 167.839L246.198 180.32ZM255.638 168L269.491 173.751L278.105 153H255.638V168ZM246.998 168L232.65 172.377L235.891 183H246.998V168ZM221.077 83.04V68.04H200.819L206.73 87.4171L221.077 83.04ZM247.958 83.04L262.604 79.8041L260.005 68.04H247.958V83.04ZM263.158 151.84L248.511 155.076L277.737 155.366L263.158 151.84ZM279.798 83.04V68.04H267.993L265.218 79.5138L279.798 83.04ZM305.878 83.04L320.174 87.5814L326.381 68.04H305.878V83.04ZM264.513 163.71C261.86 172.249 257.858 177.808 253.011 181.46L271.064 205.42C281.791 197.338 288.989 186.044 293.162 172.61L264.513 163.71ZM252.828 181.6C248.242 185.167 241.128 187.914 230.138 188.545L231.857 218.495C246.894 217.633 260.473 213.66 271.247 205.28L252.828 181.6ZM245.825 201.249L243.105 183.489L213.45 188.031L216.17 205.791L245.825 201.249ZM230.234 200.632C239.118 199.463 247.817 197.268 254.518 192.801L237.877 167.839C236.898 168.492 233.65 169.924 226.321 170.888L230.234 200.632ZM254.36 192.904C261.518 188.262 266.329 181.368 269.491 173.751L241.784 162.249C240.252 165.938 238.771 167.258 238.035 167.736L254.36 192.904ZM255.638 153H246.998V183H255.638V153ZM261.345 163.623L235.425 78.6629L206.73 87.4171L232.65 172.377L261.345 163.623ZM221.077 98.04H247.958V68.04H221.077V98.04ZM233.311 86.2759L248.511 155.076L277.804 148.604L262.604 79.8041L233.311 86.2759ZM277.737 155.366L294.377 86.5662L265.218 79.5138L248.578 148.314L277.737 155.366ZM279.798 98.04H305.878V68.04H279.798V98.04ZM291.582 78.4986L264.542 163.619L293.134 172.701L320.174 87.5814L291.582 78.4986ZM301.97 168H286.97V183H301.97V168ZM301.97 49.28L300.365 34.3661L286.97 35.8073V49.28H301.97ZM327.25 46.56H342.25V29.8595L325.645 31.6461L327.25 46.56ZM327.25 168V183H342.25V168H327.25ZM381.81 168V183H407.938L394.764 160.437L381.81 168ZM353.33 168L340.158 175.176L344.421 183H353.33V168ZM328.05 121.6L315.601 113.232L310.524 120.785L314.878 128.776L328.05 121.6ZM353.97 83.04V68.04H345.979L341.521 74.6719L353.97 83.04ZM379.73 83.04L392.07 91.5671L408.327 68.04H379.73V83.04ZM353.97 120.32L341.629 111.793L336.205 119.643L341.016 127.883L353.97 120.32ZM316.97 168V49.28H286.97V168H316.97ZM303.575 64.1939L328.855 61.4739L325.645 31.6461L300.365 34.3661L303.575 64.1939ZM312.25 46.56V168H342.25V46.56H312.25ZM327.25 153H301.97V183H327.25V153ZM381.81 153H353.33V183H381.81V153ZM366.502 160.824L341.222 114.424L314.878 128.776L340.158 175.176L366.502 160.824ZM340.499 129.968L366.419 91.4081L341.521 74.6719L315.601 113.232L340.499 129.968ZM353.97 98.04H379.73V68.04H353.97V98.04ZM367.389 74.5129L341.629 111.793L366.31 128.847L392.07 91.5671L367.389 74.5129ZM341.016 127.883L368.856 175.563L394.764 160.437L366.924 112.757L341.016 127.883ZM448.811 92.16L436.46 100.672L436.499 100.728L436.538 100.784L448.811 92.16ZM452.971 148.96L439.074 143.314L439.036 143.408L438.999 143.502L452.971 148.96ZM441.291 164.96L432.291 152.96L432.23 153.006L432.17 153.052L441.291 164.96ZM410.571 168L403.711 181.339L403.937 181.455L404.166 181.564L410.571 168ZM401.131 159.84L413.262 151.017L391.932 121.689L386.312 157.515L401.131 159.84ZM399.851 168V183H412.682L414.67 170.325L399.851 168ZM377.451 168H362.451V183H377.451V168ZM377.451 49.28L375.847 34.3661L362.451 35.8073V49.28H377.451ZM402.731 46.56H417.731V29.8595L401.127 31.6461L402.731 46.56ZM402.731 91.68H387.731V138.25L414.911 100.435L402.731 91.68ZM412.491 83.52L419.199 96.9364L419.339 96.8665L419.477 96.7938L412.491 83.52ZM427.371 104.8L414.478 112.466L414.525 112.544L414.572 112.622L427.371 104.8ZM402.731 108.8L389.851 101.113L387.731 104.664V108.8H402.731ZM402.731 144H387.731V148.246L389.956 151.861L402.731 144ZM425.131 95.32C431.006 95.32 434.072 97.2064 436.46 100.672L461.162 83.6479C452.671 71.3269 439.95 65.32 425.131 65.32V95.32ZM436.538 100.784C439.632 105.187 442.131 112.849 442.131 125.6H472.131C472.131 109.551 469.084 94.9196 461.084 83.5358L436.538 100.784ZM442.131 125.6C442.131 132.766 440.996 138.583 439.074 143.314L466.868 154.606C470.493 145.684 472.131 135.927 472.131 125.6H442.131ZM438.999 143.502C437.198 148.114 434.868 151.028 432.291 152.96L450.291 176.96C457.955 171.212 463.411 163.46 466.943 154.418L438.999 143.502ZM432.17 153.052C430.034 154.688 427.349 155.72 423.371 155.72V185.72C433.26 185.72 442.522 182.912 450.412 176.868L432.17 153.052ZM423.371 155.72C420.657 155.72 418.611 155.208 416.976 154.436L404.166 181.564C410.211 184.418 416.698 185.72 423.371 185.72V155.72ZM417.431 154.661C415.862 153.853 414.495 152.712 413.262 151.017L389 168.663C392.887 174.008 397.814 178.307 403.711 181.339L417.431 154.661ZM386.312 157.515L385.032 165.675L414.67 170.325L415.95 162.165L386.312 157.515ZM399.851 153H377.451V183H399.851V153ZM392.451 168V49.28H362.451V168H392.451ZM379.056 64.1939L404.336 61.4739L401.127 31.6461L375.847 34.3661L379.056 64.1939ZM387.731 46.56V91.68H417.731V46.56H387.731ZM414.911 100.435C415.836 99.1479 417.147 97.9627 419.199 96.9364L405.783 70.1036C399.729 73.1307 394.533 77.3854 390.551 82.9255L414.911 100.435ZM419.477 96.7938C421.482 95.7387 423.309 95.32 425.131 95.32V65.32C418.207 65.32 411.607 67.0346 405.505 70.2462L419.477 96.7938ZM416.171 167.32C420.969 167.32 425.879 166.205 430.376 163.484C434.846 160.779 438.086 156.987 440.35 152.878C444.627 145.113 445.891 135.393 445.891 125.6H415.891C415.891 129.408 415.626 132.361 415.218 134.581C414.804 136.833 414.31 137.973 414.073 138.402C413.883 138.747 414.056 138.294 414.846 137.816C415.663 137.322 416.28 137.32 416.171 137.32V167.32ZM445.891 125.6C445.891 115.444 444.891 104.702 440.17 96.9782L414.572 112.622C414.349 112.257 414.794 112.857 415.222 115.383C415.623 117.756 415.891 121.103 415.891 125.6H445.891ZM440.264 97.1339C435.379 88.9173 427.27 83.88 417.291 83.88V113.88C417.141 113.88 416.39 113.82 415.495 113.294C414.634 112.789 414.367 112.279 414.478 112.466L440.264 97.1339ZM417.291 83.88C404.508 83.88 395.473 91.6922 389.851 101.113L415.612 116.487C416.8 114.496 417.623 113.861 417.777 113.756C417.834 113.717 417.77 113.769 417.603 113.821C417.527 113.845 417.454 113.861 417.39 113.87C417.359 113.875 417.335 113.877 417.317 113.879C417.299 113.88 417.29 113.88 417.291 113.88V83.88ZM387.731 108.8V144H417.731V108.8H387.731ZM389.956 151.861C395.541 160.937 404.432 167.32 416.171 167.32V137.32C416.047 137.32 416.078 137.306 416.21 137.343C416.348 137.381 416.471 137.439 416.547 137.486C416.705 137.584 416.272 137.384 415.506 136.139L389.956 151.861ZM528.92 150.4L515.896 157.842L516.091 158.182L516.302 158.511L528.92 150.4ZM533.4 153.76L547.685 158.337L552.069 144.652L538.586 139.685L533.4 153.76ZM528.12 170.24L526.9 185.19L538.771 186.159L542.405 174.817L528.12 170.24ZM515.32 166.88L507.925 179.93L508.016 179.982L508.108 180.032L515.32 166.88ZM507.64 158.08L521.196 151.659L509.777 127.551L495.111 149.833L507.64 158.08ZM461.88 163.36L472.372 152.64L461.88 163.36ZM464.6 122.88L473.355 135.06L464.6 122.88ZM502.84 115.52V130.52H517.84V115.52H502.84ZM499.64 101.6L489.606 112.749L489.763 112.892L489.925 113.029L499.64 101.6ZM478.36 100L481.148 114.739L481.34 114.702L481.53 114.661L478.36 100ZM466.2 103.2L452.025 108.107L456.876 122.119L470.943 117.43L466.2 103.2ZM460.44 86.56L455.112 72.5382L441.503 77.7095L446.265 91.4667L460.44 86.56ZM476.76 81.92L473.979 67.1801L473.953 67.1849L473.927 67.1899L476.76 81.92ZM519.16 87.84L529.112 76.6172L519.16 87.84ZM496.92 150.56L489.289 137.646L489.156 137.725L489.025 137.806L496.92 150.56ZM502.84 144.64L515.56 152.59L517.84 148.942V144.64H502.84ZM502.84 129.44H517.84V114.44H502.84V129.44ZM483.64 132.48L475.008 120.213L474.898 120.29L474.79 120.369L483.64 132.48ZM482.04 149.92L470.829 159.885L471.122 160.215L471.433 160.527L482.04 149.92ZM512.64 143.36C512.64 147.275 513.053 152.866 515.896 157.842L541.944 142.958C542.297 143.577 542.491 144.079 542.59 144.377C542.642 144.53 542.674 144.648 542.692 144.722C542.711 144.796 542.718 144.836 542.718 144.837C542.718 144.837 542.713 144.806 542.704 144.739C542.696 144.673 542.686 144.577 542.676 144.45C542.656 144.191 542.64 143.832 542.64 143.36H512.64ZM516.302 158.511C519.381 163.3 523.807 166.211 528.214 167.835L538.586 139.685C538.728 139.737 539.177 139.922 539.76 140.36C540.367 140.815 541.004 141.458 541.538 142.289L516.302 158.511ZM519.115 149.183L513.835 165.663L542.405 174.817L547.685 158.337L519.115 149.183ZM529.34 155.29C525.448 154.972 523.417 154.213 522.533 153.728L508.108 180.032C513.836 183.174 520.339 184.655 526.9 185.19L529.34 155.29ZM522.715 153.83C522.672 153.805 522.534 153.724 522.301 153.457C522.053 153.172 521.654 152.625 521.196 151.659L494.084 164.501C497.031 170.724 501.495 176.287 507.925 179.93L522.715 153.83ZM495.111 149.833C492.77 153.389 489.351 155.72 482.04 155.72V185.72C497.769 185.72 511.417 179.624 520.169 166.327L495.111 149.833ZM482.04 155.72C476.694 155.72 474.033 154.266 472.372 152.64L451.388 174.08C459.754 182.268 470.533 185.72 482.04 185.72V155.72ZM472.372 152.64C470.615 150.92 469.36 148.572 469.36 144.16H439.36C439.36 155.534 443.119 165.987 451.388 174.08L472.372 152.64ZM469.36 144.16C469.36 139.126 470.899 136.825 473.355 135.06L455.845 110.7C444.648 118.748 439.36 130.634 439.36 144.16H469.36ZM473.355 135.06C476.595 132.731 482.859 130.52 494.2 130.52V100.52C479.728 100.52 466.259 103.215 455.845 110.7L473.355 135.06ZM494.2 130.52H502.84V100.52H494.2V130.52ZM517.84 115.52V111.84H487.84V115.52H517.84ZM517.84 111.84C517.84 105.692 516.714 96.4265 509.355 90.1709L489.925 113.029C488.307 111.653 487.803 110.252 487.723 109.994C487.682 109.863 487.717 109.931 487.759 110.264C487.8 110.593 487.84 111.108 487.84 111.84H517.84ZM509.674 90.4506C503.237 84.6568 494.66 83.72 488.44 83.72V113.72C489.332 113.72 490.031 113.761 490.561 113.817C491.094 113.873 491.393 113.939 491.504 113.967C491.617 113.996 491.462 113.968 491.13 113.805C490.789 113.638 490.232 113.313 489.606 112.749L509.674 90.4506ZM488.44 83.72C484.239 83.72 479.752 84.3524 475.19 85.3388L481.53 114.661C484.861 113.941 487.094 113.72 488.44 113.72V83.72ZM475.572 85.2614C470.906 86.1442 466.199 87.3891 461.457 88.9697L470.943 117.43C474.521 116.238 477.921 115.349 481.148 114.739L475.572 85.2614ZM480.375 98.2933L474.615 81.6533L446.265 91.4667L452.025 108.107L480.375 98.2933ZM465.768 100.582C470.3 98.8597 474.905 97.5515 479.593 96.6501L473.927 67.1899C467.521 68.4218 461.247 70.207 455.112 72.5382L465.768 100.582ZM479.541 96.6599C484.452 95.7334 488.735 95.32 492.44 95.32V65.32C486.545 65.32 480.375 65.9733 473.979 67.1801L479.541 96.6599ZM492.44 95.32C503.041 95.32 507.547 97.5899 509.208 99.0628L529.112 76.6172C519.467 68.0634 506.159 65.32 492.44 65.32V95.32ZM509.208 99.0628C510.689 100.376 512.64 103.184 512.64 110.4H542.64C542.64 97.5629 538.938 85.3307 529.112 76.6172L509.208 99.0628ZM512.64 110.4V143.36H542.64V110.4H512.64ZM489.4 167.64C494.809 167.64 500.076 166.248 504.815 163.314L489.025 137.806C489.056 137.787 489.105 137.76 489.17 137.731C489.235 137.703 489.3 137.68 489.361 137.663C489.494 137.626 489.525 137.64 489.4 137.64V167.64ZM504.551 163.474C509.182 160.737 512.825 156.966 515.56 152.59L490.12 136.69C489.655 137.434 489.351 137.609 489.289 137.646L504.551 163.474ZM517.84 144.64V129.44H487.84V144.64H517.84ZM502.84 114.44H496.6V144.44H502.84V114.44ZM496.6 114.44C489.539 114.44 481.564 115.599 475.008 120.213L492.272 144.747C491.792 145.085 491.707 144.981 492.466 144.804C493.228 144.625 494.552 144.44 496.6 144.44V114.44ZM474.79 120.369C467.213 125.906 464.48 134.161 464.48 141.92H494.48C494.48 141.382 494.569 141.676 494.246 142.409C494.083 142.78 493.841 143.197 493.509 143.61C493.178 144.023 492.821 144.349 492.49 144.591L474.79 120.369ZM464.48 141.92C464.48 147.779 465.973 154.423 470.829 159.885L493.251 139.955C493.909 140.694 494.253 141.43 494.406 141.908C494.543 142.335 494.48 142.402 494.48 141.92H464.48ZM471.433 160.527C476.624 165.718 483.205 167.64 489.4 167.64V137.64C489.311 137.64 489.728 137.627 490.44 137.89C491.203 138.172 491.991 138.658 492.647 139.313L471.433 160.527ZM613.216 88L618.833 101.909L631.703 96.7111L627.518 83.4772L613.216 88ZM588.736 91.36V76.36L582.892 105.174L588.736 91.36ZM600.896 100L612.896 91V91L600.896 100ZM600.416 128L612.849 136.392L612.897 136.321L612.944 136.25L600.416 128ZM587.936 138.08L581.77 124.406L581.719 124.429L581.668 124.453L587.936 138.08ZM559.296 140.8L562.335 126.111L557.241 125.057L552.588 127.384L559.296 140.8ZM557.216 142.88L544.104 135.595L543.946 135.88L543.8 136.172L557.216 142.88ZM558.336 149.44L548.838 161.049L549.405 161.514L550.016 161.921L558.336 149.44ZM595.776 153.92L601.757 140.164V140.164L595.776 153.92ZM607.136 162.72L594.93 171.439V171.439L607.136 162.72ZM599.616 196L591.54 183.36L591.438 183.425L591.336 183.492L599.616 196ZM542.176 200.16L547.443 186.115L547.333 186.074L547.221 186.034L542.176 200.16ZM529.536 191.04L516.643 198.706L516.719 198.833L516.797 198.959L529.536 191.04ZM526.016 176.16V161.16H511.016V176.16H526.016ZM548.736 176.16H563.736V161.16H548.736V176.16ZM550.176 182.24L537.559 190.351L537.757 190.66L537.97 190.959L550.176 182.24ZM555.776 185.6L551.732 200.044L555.776 185.6ZM581.696 184.16L573.979 171.298L573.793 171.409L573.61 171.526L581.696 184.16ZM582.656 171.04L573.758 183.116L582.656 171.04ZM541.536 164.16L532.536 176.16L532.704 176.285L532.874 176.406L541.536 164.16ZM537.856 143.04L550.55 151.032L550.615 150.929L550.678 150.825L537.856 143.04ZM545.216 135.68L553.127 148.425L575.114 134.777L552.344 122.481L545.216 135.68ZM533.536 125.6L520.643 133.266L520.766 133.473L520.896 133.676L533.536 125.6ZM540.256 88.8L549.715 100.442L549.77 100.398L549.823 100.353L540.256 88.8ZM567.296 80.32L567.671 65.3247L567.484 65.32H567.296V80.32ZM588.896 77.76L584.306 63.4796L584.268 63.4917L584.231 63.504L588.896 77.76ZM607.296 69.28L621.598 64.7572L615.899 46.7359L599.643 56.3792L607.296 69.28ZM558.496 100.8L547.439 90.6641L547.429 90.675L547.419 90.686L558.496 100.8ZM558.496 121.76L547.208 131.638L547.427 131.888L547.657 132.128L558.496 121.76ZM577.376 121.76L566.299 111.646L566.176 111.78L566.057 111.917L577.376 121.76ZM607.599 74.0914C604.736 75.2477 598.876 76.36 588.736 76.36V106.36C600.143 106.36 610.603 105.232 618.833 101.909L607.599 74.0914ZM582.892 105.174C586.95 106.891 588.45 108.404 588.896 109L612.896 91C608.223 84.7689 601.616 80.522 594.581 77.5455L582.892 105.174ZM588.896 109C589.03 109.179 589.736 110.186 589.736 113.28H619.736C619.736 105.494 617.882 97.6478 612.896 91L588.896 109ZM589.736 113.28C589.736 115.908 589.091 117.925 587.889 119.75L612.944 136.25C617.502 129.329 619.736 121.532 619.736 113.28H589.736ZM587.984 119.608C586.896 121.219 585.083 122.912 581.77 124.406L594.103 151.754C601.67 148.341 608.176 143.314 612.849 136.392L587.984 119.608ZM581.668 124.453C578.707 125.815 574.643 126.76 569.056 126.76V156.76C577.977 156.76 586.499 155.252 594.205 151.707L581.668 124.453ZM569.056 126.76C566.583 126.76 564.352 126.528 562.335 126.111L556.257 155.489C560.427 156.352 564.703 156.76 569.056 156.76V126.76ZM552.588 127.384C548.638 129.358 545.877 132.404 544.104 135.595L570.329 150.165C569.622 151.436 568.247 153.095 566.004 154.216L552.588 127.384ZM543.8 136.172C542.325 139.121 541.576 142.326 541.576 145.6H571.576C571.576 146.954 571.254 148.345 570.633 149.588L543.8 136.172ZM541.576 145.6C541.576 151.413 543.966 157.064 548.838 161.049L567.835 137.831C568.879 138.685 569.921 139.915 570.652 141.51C571.373 143.082 571.576 144.537 571.576 145.6H541.576ZM550.016 161.921C553.188 164.035 556.515 164.822 558.659 165.187C561.031 165.591 563.498 165.72 565.856 165.72V135.72C565.201 135.72 564.691 135.701 564.31 135.675C563.921 135.648 563.728 135.619 563.693 135.613C563.645 135.604 563.888 135.641 564.33 135.79C564.75 135.932 565.616 136.265 566.657 136.959L550.016 161.921ZM565.856 165.72H578.656V135.72H565.856V165.72ZM578.656 165.72C583.539 165.72 587.137 166.52 589.795 167.676L601.757 140.164C594.602 137.053 586.786 135.72 578.656 135.72V165.72ZM589.795 167.676C592.629 168.908 594.09 170.263 594.93 171.439L619.342 154.001C614.849 147.711 608.737 143.199 601.757 140.164L589.795 167.676ZM594.93 171.439C595.736 172.566 596.136 173.716 596.136 175.36H626.136C626.136 167.617 623.87 160.341 619.342 154.001L594.93 171.439ZM596.136 175.36C596.136 178.915 595.06 181.111 591.54 183.36L607.692 208.64C619.532 201.076 626.136 189.512 626.136 175.36H596.136ZM591.336 183.492C587.269 186.185 579.693 188.52 566.656 188.52V218.52C582.42 218.52 596.817 215.842 607.896 208.508L591.336 183.492ZM566.656 188.52C557.131 188.52 551.011 187.453 547.443 186.115L536.909 214.205C545.288 217.347 555.488 218.52 566.656 218.52V188.52ZM547.221 186.034C543.285 184.628 542.384 183.296 542.276 183.121L516.797 198.959C521.595 206.678 529.121 211.425 537.131 214.286L547.221 186.034ZM542.429 183.374C541.818 182.345 541.016 180.229 541.016 176.16H511.016C511.016 184.038 512.562 191.842 516.643 198.706L542.429 183.374ZM526.016 191.16H548.736V161.16H526.016V191.16ZM533.736 176.16C533.736 180.39 534.499 185.592 537.559 190.351L562.794 174.129C563.376 175.034 563.607 175.784 563.692 176.143C563.774 176.486 563.736 176.53 563.736 176.16H533.736ZM537.97 190.959C541.815 196.341 547.375 198.824 551.732 200.044L559.821 171.156C559.445 171.05 559.617 171.051 560.094 171.338C560.601 171.642 561.518 172.312 562.382 173.521L537.97 190.959ZM551.732 200.044C556.373 201.344 561.83 201.72 567.296 201.72V171.72C562.736 171.72 560.512 171.349 559.821 171.156L551.732 200.044ZM567.296 201.72C574.414 201.72 583.151 201.038 589.782 196.794L573.61 171.526C574.589 170.9 574.868 171.063 573.471 171.312C572.215 171.535 570.218 171.72 567.296 171.72V201.72ZM589.414 197.022C596.569 192.729 600.696 185.517 600.696 177.12H570.696C570.696 176.453 570.86 175.188 571.654 173.79C572.447 172.396 573.439 171.622 573.979 171.298L589.414 197.022ZM600.696 177.12C600.696 169.889 597.494 163.341 591.554 158.964L573.758 183.116C573.077 182.614 572.187 181.723 571.52 180.388C570.857 179.062 570.696 177.864 570.696 177.12H600.696ZM591.554 158.964C585.803 154.726 578.991 153.8 573.536 153.8V183.8C574.094 183.8 574.516 183.826 574.816 183.858C575.117 183.889 575.262 183.923 575.278 183.927C575.331 183.94 574.673 183.79 573.758 183.116L591.554 158.964ZM573.536 153.8H561.216V183.8H573.536V153.8ZM561.216 153.8C553.781 153.8 550.89 152.403 550.198 151.914L532.874 176.406C540.929 182.104 551.158 183.8 561.216 183.8V153.8ZM550.536 152.16C550.205 151.912 550.042 151.742 549.984 151.676C549.93 151.614 549.957 151.633 550.01 151.734C550.065 151.837 550.106 151.951 550.128 152.046C550.15 152.136 550.136 152.133 550.136 152H520.136C520.136 162.084 524.873 170.412 532.536 176.16L550.536 152.16ZM550.136 152C550.136 151.943 550.141 151.891 550.169 151.797C550.201 151.694 550.292 151.441 550.55 151.032L525.163 135.048C521.999 140.073 520.136 145.799 520.136 152H550.136ZM550.678 150.825C551.215 149.94 551.951 149.154 553.127 148.425L537.306 122.935C532.295 126.046 528.124 130.167 525.034 135.255L550.678 150.825ZM552.344 122.481C548.539 120.427 546.878 118.622 546.177 117.524L520.896 133.676C525.101 140.258 531.227 145.173 538.089 148.879L552.344 122.481ZM546.429 117.934C545.723 116.746 545.016 114.77 545.016 111.36H515.016C515.016 119.043 516.656 126.56 520.643 133.266L546.429 117.934ZM545.016 111.36C545.016 105.974 546.7 102.891 549.715 100.442L530.797 77.1583C520.159 85.8019 515.016 97.7593 515.016 111.36H545.016ZM549.823 100.353C553.313 97.4628 558.646 95.32 567.296 95.32V65.32C553.546 65.32 540.853 68.8305 530.689 77.2471L549.823 100.353ZM566.921 95.3153C576.558 95.5562 585.579 94.6287 593.562 92.016L584.231 63.504C580.481 64.7313 575.101 65.5104 567.671 65.3247L566.921 95.3153ZM593.486 92.0404C600.688 89.7255 607.845 86.3951 614.949 82.1808L599.643 56.3792C594.161 59.6316 589.051 61.9545 584.306 63.4796L593.486 92.0404ZM592.994 73.8028L598.914 92.5228L627.518 83.4772L621.598 64.7572L592.994 73.8028ZM567.936 81.96C560.418 81.96 553.028 84.5668 547.439 90.6641L569.554 110.936C569.427 111.074 569.243 111.244 569 111.414C568.756 111.584 568.505 111.718 568.268 111.814C567.781 112.013 567.591 111.96 567.936 111.96V81.96ZM547.419 90.686C541.942 96.6841 540.136 104.136 540.136 111.04H570.136C570.136 110.109 570.258 109.787 570.229 109.877C570.211 109.929 570.158 110.073 570.043 110.275C569.925 110.48 569.768 110.701 569.574 110.914L547.419 90.686ZM540.136 111.04C540.136 117.983 541.85 125.515 547.208 131.638L569.785 111.882C569.962 112.085 570.093 112.281 570.182 112.443C570.268 112.602 570.295 112.69 570.29 112.674C570.274 112.622 570.136 112.14 570.136 111.04H540.136ZM547.657 132.128C553.297 138.026 560.62 140.44 567.936 140.44V110.44C567.518 110.44 567.635 110.377 568.064 110.544C568.275 110.626 568.513 110.746 568.755 110.908C568.996 111.07 569.191 111.24 569.336 111.392L547.657 132.128ZM567.936 140.44C575.137 140.44 582.958 138.201 588.695 131.603L566.057 111.917C566.325 111.61 566.647 111.317 567.009 111.064C567.37 110.813 567.704 110.647 567.968 110.544C568.482 110.344 568.57 110.44 567.936 110.44V140.44ZM588.454 131.874C594.191 125.59 595.736 117.618 595.736 110.72H565.736C565.736 112.08 565.576 112.696 565.546 112.793C565.536 112.825 565.57 112.704 565.691 112.483C565.815 112.256 566.012 111.961 566.299 111.646L588.454 131.874ZM595.736 110.72C595.736 104.08 594.214 96.3056 588.519 90.1834C582.634 83.8567 574.804 81.96 567.936 81.96V111.96C568.767 111.96 568.854 112.076 568.476 111.941C568.015 111.775 567.257 111.373 566.553 110.617C565.872 109.884 565.643 109.251 565.609 109.142C565.594 109.093 565.736 109.542 565.736 110.72H595.736ZM679.101 150.4L666.078 157.842L666.272 158.182L666.484 158.511L679.101 150.4ZM683.581 153.76L697.866 158.337L702.25 144.652L688.767 139.685L683.581 153.76ZM678.301 170.24L677.081 185.19L688.952 186.159L692.586 174.817L678.301 170.24ZM665.501 166.88L658.106 179.93L658.197 179.982L658.289 180.032L665.501 166.88ZM657.821 158.08L671.377 151.659L659.958 127.551L645.292 149.833L657.821 158.08ZM612.061 163.36L622.553 152.64L612.061 163.36ZM614.781 122.88L623.536 135.06L614.781 122.88ZM653.021 115.52V130.52H668.021V115.52H653.021ZM649.821 101.6L639.787 112.749L639.945 112.892L640.107 113.029L649.821 101.6ZM628.541 100L631.33 114.739L631.521 114.702L631.711 114.661L628.541 100ZM616.381 103.2L602.206 108.107L607.057 122.119L621.125 117.43L616.381 103.2ZM610.621 86.56L605.293 72.5382L591.684 77.7095L596.446 91.4667L610.621 86.56ZM626.941 81.92L624.16 67.1801L624.134 67.1849L624.109 67.1899L626.941 81.92ZM669.341 87.84L679.294 76.6172L669.341 87.84ZM647.101 150.56L639.47 137.646L639.337 137.725L639.206 137.806L647.101 150.56ZM653.021 144.64L665.741 152.59L668.021 148.942V144.64H653.021ZM653.021 129.44H668.021V114.44H653.021V129.44ZM633.821 132.48L625.189 120.213L625.079 120.29L624.971 120.369L633.821 132.48ZM632.221 149.92L621.01 159.885L621.303 160.215L621.615 160.527L632.221 149.92ZM662.821 143.36C662.821 147.275 663.234 152.866 666.078 157.842L692.125 142.958C692.479 143.577 692.672 144.079 692.771 144.377C692.823 144.53 692.855 144.648 692.873 144.722C692.892 144.796 692.899 144.836 692.899 144.837C692.899 144.837 692.894 144.806 692.885 144.739C692.877 144.673 692.867 144.577 692.857 144.45C692.837 144.191 692.821 143.832 692.821 143.36H662.821ZM666.484 158.511C669.562 163.3 673.988 166.211 678.396 167.835L688.767 139.685C688.91 139.737 689.358 139.922 689.941 140.36C690.548 140.815 691.185 141.458 691.719 142.289L666.484 158.511ZM669.297 149.183L664.016 165.663L692.586 174.817L697.866 158.337L669.297 149.183ZM679.522 155.29C675.629 154.972 673.598 154.213 672.714 153.728L658.289 180.032C664.017 183.174 670.52 184.655 677.081 185.19L679.522 155.29ZM672.896 153.83C672.853 153.805 672.715 153.724 672.483 153.457C672.234 153.172 671.835 152.625 671.377 151.659L644.265 164.501C647.213 170.724 651.677 176.287 658.106 179.93L672.896 153.83ZM645.292 149.833C642.951 153.389 639.532 155.72 632.221 155.72V185.72C647.95 185.72 661.598 179.624 670.351 166.327L645.292 149.833ZM632.221 155.72C626.875 155.72 624.214 154.266 622.553 152.64L601.569 174.08C609.935 182.268 620.714 185.72 632.221 185.72V155.72ZM622.553 152.64C620.796 150.92 619.541 148.572 619.541 144.16H589.541C589.541 155.534 593.3 165.987 601.569 174.08L622.553 152.64ZM619.541 144.16C619.541 139.126 621.08 136.825 623.536 135.06L606.027 110.7C594.829 118.748 589.541 130.634 589.541 144.16H619.541ZM623.536 135.06C626.776 132.731 633.04 130.52 644.381 130.52V100.52C629.909 100.52 616.44 103.215 606.027 110.7L623.536 135.06ZM644.381 130.52H653.021V100.52H644.381V130.52ZM668.021 115.52V111.84H638.021V115.52H668.021ZM668.021 111.84C668.021 105.692 666.896 96.4265 659.536 90.1709L640.107 113.029C638.488 111.653 637.985 110.252 637.904 109.994C637.863 109.863 637.898 109.931 637.94 110.264C637.982 110.593 638.021 111.108 638.021 111.84H668.021ZM659.856 90.4506C653.418 84.6568 644.841 83.72 638.621 83.72V113.72C639.513 113.72 640.212 113.761 640.742 113.817C641.275 113.873 641.575 113.939 641.686 113.967C641.799 113.996 641.644 113.968 641.311 113.805C640.97 113.638 640.413 113.313 639.787 112.749L659.856 90.4506ZM638.621 83.72C634.42 83.72 629.933 84.3524 625.371 85.3388L631.711 114.661C635.042 113.941 637.276 113.72 638.621 113.72V83.72ZM625.753 85.2614C621.087 86.1442 616.38 87.3891 611.638 88.9697L621.125 117.43C624.703 116.238 628.102 115.349 631.33 114.739L625.753 85.2614ZM630.556 98.2933L624.796 81.6533L596.446 91.4667L602.206 108.107L630.556 98.2933ZM615.949 100.582C620.481 98.8597 625.087 97.5515 629.774 96.6501L624.109 67.1899C617.703 68.4218 611.428 70.207 605.293 72.5382L615.949 100.582ZM629.722 96.6599C634.633 95.7334 638.916 95.32 642.621 95.32V65.32C636.726 65.32 630.556 65.9733 624.16 67.1801L629.722 96.6599ZM642.621 95.32C653.222 95.32 657.728 97.5899 659.389 99.0628L679.294 76.6172C669.648 68.0634 656.34 65.32 642.621 65.32V95.32ZM659.389 99.0628C660.87 100.376 662.821 103.184 662.821 110.4H692.821C692.821 97.5629 689.119 85.3307 679.294 76.6172L659.389 99.0628ZM662.821 110.4V143.36H692.821V110.4H662.821ZM639.581 167.64C644.99 167.64 650.257 166.248 654.997 163.314L639.206 137.806C639.237 137.787 639.286 137.76 639.351 137.731C639.416 137.703 639.482 137.68 639.542 137.663C639.675 137.626 639.706 137.64 639.581 137.64V167.64ZM654.732 163.474C659.363 160.737 663.006 156.966 665.741 152.59L640.301 136.69C639.836 137.434 639.532 137.609 639.47 137.646L654.732 163.474ZM668.021 144.64V129.44H638.021V144.64H668.021ZM653.021 114.44H646.781V144.44H653.021V114.44ZM646.781 114.44C639.72 114.44 631.745 115.599 625.189 120.213L642.454 144.747C641.974 145.085 641.888 144.981 642.647 144.804C643.409 144.625 644.733 144.44 646.781 144.44V114.44ZM624.971 120.369C617.395 125.906 614.661 134.161 614.661 141.92H644.661C644.661 141.382 644.751 141.676 644.428 142.409C644.264 142.78 644.023 143.197 643.691 143.61C643.359 144.023 643.002 144.349 642.672 144.591L624.971 120.369ZM614.661 141.92C614.661 147.779 616.155 154.423 621.01 159.885L643.432 139.955C644.09 140.694 644.435 141.43 644.588 141.908C644.724 142.335 644.661 142.402 644.661 141.92H614.661ZM621.615 160.527C626.806 165.718 633.386 167.64 639.581 167.64V137.64C639.492 137.64 639.91 137.627 640.621 137.89C641.384 138.172 642.172 138.658 642.828 139.313L621.615 160.527Z" fill="white"/>
<path d="M453.113 96.0618C467.893 106.408 484.783 104.128 484.783 104.303C484.959 104.654 473.347 90.275 456.456 92.9054C462.966 87.9954 469.828 83.4362 476.866 79.5784C476.514 78.7016 475.986 78.1755 475.634 77.2987C459.447 86.0665 444.668 98.166 432 113.422C432.704 113.773 433.232 114.474 433.935 114.825C439.742 107.811 446.251 101.498 453.113 95.7111C452.937 96.0618 452.937 96.0618 453.113 96.0618ZM499.914 60.8153C503.785 54.6779 504.137 48.8911 504.137 46.0855C501.85 46.2608 484.607 51.3461 479.857 65.1992C478.625 68.3556 478.449 71.1613 478.625 73.6163C478.625 73.7916 478.625 74.3177 478.625 74.493C478.801 75.5452 478.977 76.5973 479.329 77.4741C480.912 76.5973 491.821 72.5641 498.683 62.7442C499.211 62.0428 499.562 61.5167 499.914 60.8153ZM506.072 69.9338C505.369 69.5831 504.665 69.057 503.961 68.8817C502.729 68.531 501.674 68.1803 500.618 68.0049C496.22 72.7395 491.469 75.8959 487.774 78.1755C488.478 78.5262 489.006 79.0523 489.886 79.2276C502.026 84.6637 514.166 80.8058 516.101 80.4551C514.87 78.3509 512.23 73.0902 506.072 69.9338ZM526.834 54.8532C531.584 49.2419 532.992 43.8058 533.52 41.1755C531.408 41.1755 517.333 42.403 509.239 51.6968C508.36 55.0286 507.128 58.7111 504.665 62.7442C504.489 63.0949 503.961 63.621 503.785 63.9717C503.081 64.8485 502.729 65.3746 502.378 66.076C502.729 66.076 503.257 66.2513 503.609 66.4267C504.313 66.6021 504.841 66.7774 505.545 67.1281C509.415 66.076 518.213 63.4457 525.25 56.6068C525.778 56.0807 526.13 55.5547 526.834 54.8532ZM531.056 64.8485C530.353 64.4978 529.825 63.9717 528.945 63.621C527.889 62.9196 527.01 62.5689 525.954 62.2182C521.028 66.076 515.749 68.3556 511.351 69.9338C512.055 70.6352 512.582 70.9859 513.286 71.3366C524.371 79.0523 536.687 77.2987 538.798 77.2987C538.446 74.493 536.687 69.2324 531.056 64.8485ZM552.17 55.0286C552.874 54.6779 553.401 54.1518 554.281 53.6257C559.911 49.0665 562.199 43.8058 563.078 41.1755C561.143 41.0001 546.891 39.7727 537.39 47.4883C535.983 50.8201 534.048 54.1518 530.881 57.6589C530.529 58.0096 530.177 58.3603 529.825 58.5357C529.121 59.2371 528.593 59.7632 527.889 60.4646C528.241 60.4646 528.769 60.8153 529.121 61.166C529.825 61.3414 530.353 61.8675 530.705 62.0428C535.103 61.6921 544.076 60.64 552.17 55.0286ZM556.744 64.1471C556.041 63.7964 555.513 63.0949 554.809 62.7442C553.929 61.8675 553.225 61.3414 552.17 60.64C546.54 63.621 541.085 65.0239 536.863 65.9006C537.214 66.6021 537.918 66.9528 538.27 67.4788C547.595 76.7727 560.263 77.4741 562.374 77.6494C562.023 75.1945 561.319 69.4077 556.744 64.1471ZM583.664 44.858C582.784 44.858 582.256 44.858 581.376 44.858C579.793 44.6826 577.682 44.858 575.746 45.0333C574.867 45.2087 574.163 45.2087 573.283 45.384C570.82 45.7347 568.005 46.7869 565.717 48.0144C563.782 50.9954 561.143 53.9765 557.624 56.7821C557.272 57.1329 556.744 57.4836 556.392 57.8343C555.689 58.185 554.985 58.7111 554.281 59.0618C554.633 59.4125 555.161 59.7632 555.337 59.9385C556.04 60.2893 556.392 60.8153 556.92 61.3414C560.791 61.5167 569.94 62.2182 578.913 58.185C579.617 57.8343 580.321 57.3082 581.025 56.9575C584.719 55.0286 587.183 52.749 589.118 50.4693C589.294 50.294 589.47 50.1186 589.822 49.7679C590.174 49.9433 590.35 49.7679 590.35 49.4172C590.701 48.7158 591.229 48.3651 591.405 47.839C591.757 47.4883 592.109 46.9622 592.285 46.6115H592.109C591.757 46.4362 591.229 46.4362 590.877 46.2608C590.174 46.0855 589.646 46.0855 588.942 45.9101C587.534 45.5594 585.599 45.2087 583.664 44.858ZM581.904 68.1803C581.552 67.4788 581.025 66.9528 580.497 66.2513C579.793 65.1992 578.913 64.6731 578.033 63.7964C572.051 65.9006 566.421 66.2513 561.847 66.2513C562.199 66.9528 562.726 67.4788 563.078 68.1803C570.82 78.8769 582.96 81.858 585.071 82.5594C585.423 79.7537 585.775 74.1423 581.904 68.1803ZM611.991 53.8011C610.759 53.6257 609.352 53.0997 607.768 52.9243C605.481 52.5736 603.018 52.5736 600.554 52.5736C599.675 52.749 598.971 52.749 598.091 52.9243C596.684 53.0997 595.1 53.275 593.693 53.9765C591.405 56.4314 588.238 58.8864 584.367 60.9907C583.664 61.3414 583.312 61.6921 582.96 61.8675C582.08 62.0428 581.552 62.5689 580.673 62.9196C581.025 63.0949 581.376 63.621 581.728 63.7964C582.08 64.4978 582.608 64.8485 582.96 65.3746C586.831 66.4267 595.628 68.531 605.129 66.2513C606.009 66.076 606.712 65.9006 607.592 65.5499C611.463 64.1471 614.454 62.3935 616.741 60.64C616.917 60.4646 617.093 60.2893 617.445 59.9385C617.621 59.7632 617.797 59.5878 618.149 59.5878C618.853 58.8864 619.204 58.5357 619.556 58.185C619.908 57.8343 620.26 57.3082 620.436 57.1329C620.436 57.1329 620.436 56.9575 620.26 56.9575C620.084 56.9575 619.556 56.7821 619.204 56.2561C618.501 56.0807 617.973 55.9054 617.269 55.5547C615.686 55.0286 614.102 54.5025 611.991 53.8011ZM606.36 76.422C606.009 75.5452 605.481 75.0191 605.129 74.3177C604.777 73.2656 604.073 72.2134 603.193 71.3366C597.035 72.2134 591.053 71.512 586.831 70.9859C587.007 71.6874 587.534 72.2134 587.71 73.0902C593.341 85.1897 605.129 90.0997 607.064 91.1518C607.768 88.6968 609 82.9101 606.36 76.422ZM638.734 68.0049C637.503 67.6542 636.095 66.9528 634.512 66.4267C632.4 65.5499 629.937 65.0239 627.474 64.8485C626.594 64.6731 625.89 64.6731 625.011 64.6731C623.603 64.6731 621.844 64.6731 620.436 64.8485C617.797 66.9528 614.278 68.7063 609.879 70.2845C609.176 70.4599 608.824 70.4599 608.296 70.6352C607.416 70.8106 606.888 70.9859 606.009 71.3366C606.185 71.6874 606.36 72.2134 606.888 72.3888C607.064 73.0902 607.592 73.6163 607.768 74.3177C611.463 75.8959 620.084 79.7537 629.937 79.2276C630.817 79.2276 631.52 79.0523 632.4 79.0523C636.623 78.3509 639.966 77.1234 642.429 75.8959C643.133 75.7205 643.485 75.1945 643.837 75.0191C644.54 74.6684 645.068 74.1423 645.42 73.967C645.772 73.6163 646.3 73.2656 646.476 72.9149C646.476 72.9149 646.476 72.9149 646.3 72.7395C646.124 72.7395 645.596 72.3888 645.244 72.0381C644.892 71.6874 644.188 71.1613 643.661 70.8106C642.253 69.7584 640.67 68.8817 638.734 68.0049ZM634.16 91.6779C634.863 92.73 635.391 93.9575 636.095 95.0096C636.447 95.7111 636.799 96.2371 637.151 96.9386C638.558 98.8675 639.79 100.446 641.373 101.849C642.077 102.55 642.605 103.076 643.309 103.427C643.485 103.777 644.012 104.128 644.188 104.303C645.772 105.706 647.355 106.758 648.763 107.811C649.115 107.986 649.467 108.161 649.819 108.512C650.698 109.213 651.402 109.74 652.458 110.09C652.81 110.441 653.513 110.792 654.041 111.142C655.625 112.019 657.208 112.721 658.44 113.247C658.792 113.422 659.144 113.597 659.496 113.948C660.375 114.123 660.903 114.649 661.431 114.649C661.431 114.299 661.431 113.422 661.431 112.721C661.431 112.37 661.255 111.844 661.255 111.493C661.255 111.142 661.255 110.441 661.079 110.09C660.727 106.758 659.496 102.55 656.505 98.3414C647.707 85.5404 633.632 84.839 632.048 84.839C632.048 86.5926 632.928 89.0476 634.16 91.6779ZM628.353 86.7679C628.002 85.7158 627.474 84.6637 626.946 83.6115C620.436 83.2608 614.806 81.5073 610.759 80.1044C610.935 80.8058 610.935 81.5073 611.111 82.384C614.63 95.185 625.714 102.55 627.298 103.777C628.353 101.498 630.641 96.0618 629.233 89.0476C629.057 88.3461 628.881 87.6447 628.353 86.7679Z" fill="#FFCC00"/>
<path d="M453.113 96.0617C467.893 106.408 484.783 104.128 484.783 104.303C484.959 104.654 473.347 90.275 456.456 92.9053C462.966 87.9953 469.828 83.4361 476.866 79.5783L475.986 78.3508C449.243 94.8342 433.056 114.299 433.056 114.299L433.935 115C439.742 107.986 446.251 101.673 453.113 95.8863C452.937 96.0617 452.937 96.0617 453.113 96.0617ZM478.977 76.4219C483.376 73.9669 487.95 71.5119 492.877 69.2323C486.895 74.493 480.385 76.948 479.153 77.474C478.977 76.948 478.977 76.7726 478.977 76.4219ZM503.257 64.6731C509.415 62.2181 516.101 60.1138 522.963 58.5356C516.277 64.147 509.063 66.2513 505.369 67.3034C504.665 67.128 504.137 66.9527 503.433 66.602C503.081 66.4266 502.554 66.2513 502.202 66.2513C502.378 65.7252 502.905 65.0238 503.257 64.6731ZM531.584 56.7821C538.094 55.7299 544.956 55.3792 551.994 55.3792C543.9 60.8152 535.103 61.8674 531.056 62.0427C530.705 61.8674 530.001 61.3413 529.473 61.166C529.121 60.9906 528.593 60.4645 528.241 60.4645C528.945 59.7631 529.473 59.237 530.177 58.5356C530.353 58.3603 530.881 57.8342 531.232 57.4835C531.056 57.3081 531.408 57.1328 531.584 56.7821ZM559.383 55.7299C565.717 56.0806 571.875 56.9574 578.561 58.5356C569.764 62.2181 561.143 61.692 557.096 61.5167C556.392 60.8152 556.04 60.4645 555.513 60.1138C555.337 59.9385 554.809 59.7631 554.457 59.237C555.161 58.8863 555.865 58.3603 556.568 58.0096C556.92 57.6588 557.448 57.3081 557.8 56.9574C558.328 56.6067 558.856 56.0806 559.383 55.7299ZM585.423 60.4645C591.053 62.0427 596.508 64.147 601.962 66.9527C593.693 68.1802 586.303 66.2513 582.784 65.5498C582.432 64.8484 581.904 64.4977 581.552 63.9716C581.2 63.7963 580.849 63.2702 580.497 63.0949C581.376 62.7442 581.904 62.2181 582.784 62.0427C583.136 61.8674 583.664 61.692 584.192 61.166C584.719 60.8152 584.895 60.6399 585.423 60.4645ZM608.824 70.2844C613.574 72.7394 618.149 75.5451 622.899 78.7015C616.037 77.6494 610.407 75.1944 607.592 73.9669C607.416 73.2655 606.888 72.7394 606.712 72.038C606.36 71.8626 606.009 71.3366 605.833 70.9859C606.712 70.8105 607.24 70.6352 608.12 70.2844C608.472 70.4598 608.648 70.4598 608.824 70.2844ZM631.696 84.6636C643.837 93.7821 653.337 103.076 661.255 112.194V112.545C661.255 113.247 661.255 113.948 661.255 114.474C660.903 114.474 660.199 114.123 659.32 113.773C658.968 113.597 658.616 113.422 658.264 113.071C657.032 112.72 655.625 111.844 653.865 110.967C653.162 110.616 652.634 110.265 652.282 109.915C651.226 109.564 650.346 108.863 649.643 108.337C649.291 108.161 648.939 107.986 648.587 107.635C647.179 106.583 645.596 105.531 644.012 104.128C643.837 103.953 643.309 103.777 643.133 103.251C642.429 102.901 641.901 102.199 641.197 101.673C639.79 100.27 638.558 98.5167 636.975 96.7631C636.623 96.0617 636.271 95.5356 635.919 94.8342C635.215 93.7821 634.687 92.5546 633.984 91.5025C632.928 89.0475 632.048 86.5925 631.696 84.6636ZM506.072 69.9337C505.369 69.583 504.665 69.057 503.961 68.8816C502.729 68.5309 501.674 68.1802 500.618 68.0048C496.22 72.7394 491.469 75.8958 487.774 78.1754C488.478 78.5262 489.006 79.0522 489.886 79.2276C502.026 84.6636 514.166 80.8058 516.101 80.4551C514.87 78.3508 512.23 73.0901 506.072 69.9337ZM531.056 64.8484C530.353 64.4977 529.825 63.9716 528.945 63.6209C527.889 62.9195 527.01 62.5688 525.954 62.2181C521.028 66.0759 515.749 68.3555 511.351 69.9337C512.055 70.6352 512.582 70.9859 513.286 71.3366C524.371 79.0522 536.687 77.2987 538.798 77.2987C538.446 74.493 536.687 69.2323 531.056 64.8484ZM556.744 64.147C556.04 63.7963 555.513 63.0949 554.809 62.7442C553.929 61.8674 553.225 61.3413 552.17 60.6399C546.54 63.6209 541.085 65.0238 536.863 65.9006C537.214 66.602 537.918 66.9527 538.27 67.4788C547.595 76.7726 560.263 77.474 562.374 77.6494C562.023 75.1944 561.319 69.4077 556.744 64.147ZM581.904 68.1802C581.552 67.4788 581.025 66.9527 580.497 66.2513C579.793 65.1991 578.913 64.6731 578.033 63.7963C572.051 65.9006 566.421 66.2513 561.847 66.2513C562.199 66.9527 562.726 67.4788 563.078 68.1802C570.82 78.8769 582.96 81.8579 585.071 82.5593C585.423 79.7536 585.775 74.1423 581.904 68.1802ZM606.36 76.4219C606.009 75.5451 605.481 75.019 605.129 74.3176C604.777 73.2655 604.073 72.2134 603.193 71.3366C597.035 72.2134 591.053 71.5119 586.831 70.9859C587.007 71.6873 587.534 72.2134 587.71 73.0901C593.341 85.1897 605.129 90.0996 607.064 91.1517C607.768 88.6968 609 82.91 606.36 76.4219ZM628.353 86.7679C628.002 85.7157 627.474 84.6636 626.946 83.6115C620.436 83.2607 614.806 81.5072 610.759 80.1044C610.935 80.8058 610.935 81.5072 611.111 82.384C614.63 95.1849 625.714 102.55 627.298 103.777C628.353 101.498 630.641 96.0617 629.233 89.0475C629.057 88.3461 628.881 87.6446 628.353 86.7679Z" fill="#DD8600"/>
</g>
<defs>
<filter id="filter0_d" x="0.728882" y="27.8595" width="705.521" height="197.417" filterUnits="userSpaceOnUse" color-interpolation-filters="sRGB">
<feFlood flood-opacity="0" result="BackgroundImageFix"/>
<feColorMatrix in="SourceAlpha" type="matrix" values="0 0 0 0 0 0 0 0 0 0 0 0 0 0 0 0 0 0 127 0"/>
<feOffset dy="2"/>
<feGaussianBlur stdDeviation="2"/>
<feColorMatrix type="matrix" values="0 0 0 0 0 0 0 0 0 0 0 0 0 0 0 0 0 0 0.05 0"/>
<feBlend mode="normal" in2="BackgroundImageFix" result="effect1_dropShadow"/>
<feBlend mode="normal" in="SourceGraphic" in2="effect1_dropShadow" result="shape"/>
</filter>
</defs>
</svg>
