<svg width="230" height="74" viewBox="0 0 230 74" fill="none" xmlns="http://www.w3.org/2000/svg">
<path d="M21.1133 55.0618C35.8926 65.4078 52.7832 63.1281 52.7832 63.3035C52.9591 63.6542 41.3468 49.275 24.4562 51.9054C30.9661 46.9954 37.828 42.4362 44.8657 38.5784C44.5138 37.7016 43.986 37.1755 43.6341 36.2987C27.4473 45.0665 12.668 57.166 0 72.422C0.703776 72.7727 1.23161 73.4741 1.93538 73.8248C7.74153 66.8106 14.2515 60.4978 21.1133 54.7111C20.9373 55.0618 20.9373 55.0618 21.1133 55.0618ZM67.9144 19.8153C71.7851 13.6779 72.137 7.89114 72.137 5.08546C69.8498 5.26081 52.6073 10.3461 47.8568 24.1992C46.6252 27.3556 46.4492 30.1613 46.6252 32.6163C46.6252 32.7916 46.6252 33.3177 46.6252 33.493C46.8011 34.5452 46.977 35.5973 47.3289 36.4741C48.9124 35.5973 59.821 31.5641 66.6828 21.7442C67.2106 21.0428 67.5625 20.5167 67.9144 19.8153ZM74.0724 28.9338C73.3686 28.5831 72.6649 28.057 71.9611 27.8817C70.7295 27.531 69.6738 27.1803 68.6181 27.0049C64.2196 31.7395 59.4691 34.8959 55.7742 37.1755C56.478 37.5262 57.0058 38.0523 57.8856 38.2276C70.0257 43.6637 82.1658 39.8058 84.1012 39.4551C82.8696 37.3509 80.2304 32.0902 74.0724 28.9338ZM94.8338 13.8532C99.5843 8.24186 100.992 2.80583 101.52 0.175502C99.4083 0.175502 85.3328 1.40299 77.2394 10.6968C76.3597 14.0286 75.1281 17.7111 72.6649 21.7442C72.4889 22.0949 71.9611 22.621 71.7851 22.9717C71.0814 23.8485 70.7295 24.3746 70.3776 25.076C70.7295 25.076 71.2573 25.2513 71.6092 25.4267C72.313 25.6021 72.8408 25.7774 73.5446 26.1281C77.4153 25.076 86.2125 22.4457 93.2503 15.6068C93.7781 15.0807 94.13 14.5547 94.8338 13.8532ZM99.0565 23.8485C98.3527 23.4978 97.8248 22.9717 96.9451 22.621C95.8895 21.9196 95.0098 21.5689 93.9541 21.2182C89.0276 25.076 83.7493 27.3556 79.3507 28.9338C80.0545 29.6352 80.5823 29.9859 81.2861 30.3366C92.3706 38.0523 104.687 36.2987 106.798 36.2987C106.446 33.493 104.687 28.2324 99.0565 23.8485ZM120.17 14.0286C120.874 13.6779 121.401 13.1518 122.281 12.6257C127.911 8.0665 130.199 2.80583 131.078 0.175502C129.143 0.000146759 114.891 -1.22734 105.39 6.4883C103.983 9.82006 102.048 13.1518 98.8805 16.6589C98.5286 17.0096 98.1767 17.3603 97.8248 17.5357C97.1211 18.2371 96.5932 18.7632 95.8895 19.4646C96.2413 19.4646 96.7692 19.8153 97.1211 20.166C97.8249 20.3414 98.3527 20.8675 98.7046 21.0428C103.103 20.6921 112.076 19.64 120.17 14.0286ZM124.744 23.1471C124.041 22.7964 123.513 22.0949 122.809 21.7442C121.929 20.8675 121.225 20.3414 120.17 19.64C114.54 22.621 109.085 24.0239 104.863 24.9006C105.214 25.6021 105.918 25.9528 106.27 26.4788C115.595 35.7727 128.263 36.4741 130.374 36.6494C130.023 34.1945 129.319 28.4077 124.744 23.1471ZM151.664 3.85797C150.784 3.85797 150.256 3.85797 149.376 3.85797C147.793 3.68261 145.682 3.85797 143.746 4.03332C142.867 4.20868 142.163 4.20868 141.283 4.38403C138.82 4.73475 136.005 5.78688 133.717 7.01437C131.782 9.99541 129.143 12.9765 125.624 15.7821C125.272 16.1329 124.744 16.4836 124.392 16.8343C123.689 17.185 122.985 17.7111 122.281 18.0618C122.633 18.4125 123.161 18.7632 123.337 18.9385C124.04 19.2893 124.392 19.8153 124.92 20.3414C128.791 20.5167 137.94 21.2182 146.913 17.185C147.617 16.8343 148.321 16.3082 149.025 15.9575C152.719 14.0286 155.183 11.749 157.118 9.46935C157.294 9.29399 157.47 9.11863 157.822 8.76792C158.174 8.94328 158.35 8.76792 158.35 8.41721C158.701 7.71579 159.229 7.36508 159.405 6.83901C159.757 6.4883 160.109 5.96223 160.285 5.61152H160.109C159.757 5.43617 159.229 5.43617 158.877 5.26081C158.174 5.08546 157.646 5.08546 156.942 4.9101C155.534 4.55939 153.599 4.20868 151.664 3.85797ZM149.904 27.1803C149.552 26.4788 149.025 25.9528 148.497 25.2513C147.793 24.1992 146.913 23.6731 146.033 22.7964C140.051 24.9006 134.421 25.2513 129.847 25.2513C130.199 25.9528 130.726 26.4788 131.078 27.1803C138.82 37.8769 150.96 40.858 153.071 41.5594C153.423 38.7537 153.775 33.1423 149.904 27.1803ZM179.991 12.8011C178.759 12.6257 177.352 12.0997 175.768 11.9243C173.481 11.5736 171.018 11.5736 168.554 11.5736C167.675 11.749 166.971 11.749 166.091 11.9243C164.684 12.0997 163.1 12.275 161.693 12.9765C159.405 15.4314 156.238 17.8864 152.367 19.9907C151.664 20.3414 151.312 20.6921 150.96 20.8675C150.08 21.0428 149.552 21.5689 148.673 21.9196C149.025 22.0949 149.376 22.621 149.728 22.7964C150.08 23.4978 150.608 23.8485 150.96 24.3746C154.831 25.4267 163.628 27.531 173.129 25.2513C174.009 25.076 174.712 24.9006 175.592 24.5499C179.463 23.1471 182.454 21.3935 184.741 19.64C184.917 19.4646 185.093 19.2893 185.445 18.9385C185.621 18.7632 185.797 18.5878 186.149 18.5878C186.853 17.8864 187.204 17.5357 187.556 17.185C187.908 16.8343 188.26 16.3082 188.436 16.1329C188.436 16.1329 188.436 15.9575 188.26 15.9575C188.084 15.9575 187.556 15.7821 187.204 15.2561C186.501 15.0807 185.973 14.9054 185.269 14.5547C183.686 14.0286 182.102 13.5025 179.991 12.8011ZM174.36 35.422C174.009 34.5452 173.481 34.0191 173.129 33.3177C172.777 32.2656 172.073 31.2134 171.193 30.3366C165.035 31.2134 159.053 30.512 154.831 29.9859C155.007 30.6874 155.534 31.2134 155.71 32.0902C161.341 44.1897 173.129 49.0997 175.064 50.1518C175.768 47.6968 177 41.9101 174.36 35.422ZM206.734 27.0049C205.503 26.6542 204.095 25.9528 202.512 25.4267C200.4 24.5499 197.937 24.0239 195.474 23.8485C194.594 23.6731 193.89 23.6731 193.011 23.6731C191.603 23.6731 189.844 23.6731 188.436 23.8485C185.797 25.9528 182.278 27.7063 177.879 29.2845C177.176 29.4599 176.824 29.4599 176.296 29.6352C175.416 29.8106 174.888 29.9859 174.009 30.3366C174.185 30.6874 174.36 31.2134 174.888 31.3888C175.064 32.0902 175.592 32.6163 175.768 33.3177C179.463 34.8959 188.084 38.7537 197.937 38.2276C198.817 38.2276 199.52 38.0523 200.4 38.0523C204.623 37.3509 207.966 36.1234 210.429 34.8959C211.133 34.7205 211.485 34.1945 211.837 34.0191C212.54 33.6684 213.068 33.1423 213.42 32.967C213.772 32.6163 214.3 32.2656 214.476 31.9149C214.476 31.9149 214.476 31.9149 214.3 31.7395C214.124 31.7395 213.596 31.3888 213.244 31.0381C212.892 30.6874 212.188 30.1613 211.661 29.8106C210.253 28.7584 208.67 27.8817 206.734 27.0049ZM202.16 50.6779C202.863 51.73 203.391 52.9575 204.095 54.0096C204.447 54.7111 204.799 55.2371 205.151 55.9386C206.558 57.8675 207.79 59.4457 209.373 60.8485C210.077 61.5499 210.605 62.076 211.309 62.4267C211.485 62.7774 212.012 63.1281 212.188 63.3035C213.772 64.7063 215.355 65.7585 216.763 66.8106C217.115 66.9859 217.467 67.1613 217.819 67.512C218.698 68.2134 219.402 68.7395 220.458 69.0902C220.81 69.4409 221.513 69.7916 222.041 70.1423C223.625 71.0191 225.208 71.7206 226.44 72.2466C226.792 72.422 227.144 72.5973 227.496 72.948C228.375 73.1234 228.903 73.6495 229.431 73.6495C229.431 73.2988 229.431 72.422 229.431 71.7206C229.431 71.3698 229.255 70.8438 229.255 70.4931C229.255 70.1423 229.255 69.4409 229.079 69.0902C228.727 65.7585 227.496 61.5499 224.505 57.3414C215.707 44.5404 201.632 43.839 200.048 43.839C200.048 45.5926 200.928 48.0476 202.16 50.6779ZM196.353 45.7679C196.002 44.7158 195.474 43.6637 194.946 42.6115C188.436 42.2608 182.806 40.5073 178.759 39.1044C178.935 39.8058 178.935 40.5073 179.111 41.384C182.63 54.185 193.714 61.5499 195.298 62.7774C196.353 60.4978 198.641 55.0618 197.233 48.0476C197.057 47.3461 196.881 46.6447 196.353 45.7679Z" fill="#FFCC00"/>
<path d="M21.1133 55.0617C35.8926 65.4077 52.7832 63.1281 52.7832 63.3034C52.9591 63.6541 41.3468 49.275 24.4562 51.9053C30.9661 46.9953 37.8279 42.4361 44.8657 38.5783L43.986 37.3508C17.2425 53.8342 1.05566 73.2987 1.05566 73.2987L1.93538 74.0001C7.74153 66.9859 14.2515 60.6731 21.1133 54.8863C20.9373 55.0617 20.9373 55.0617 21.1133 55.0617ZM46.977 35.4219C51.3756 32.9669 55.9502 30.5119 60.8766 28.2323C54.8945 33.493 48.3846 35.948 47.153 36.474C46.977 35.948 46.977 35.7726 46.977 35.4219ZM71.2573 23.6731C77.4153 21.2181 84.1012 19.1138 90.963 17.5356C84.2772 23.147 77.0635 25.2513 73.3686 26.3034C72.6649 26.128 72.137 25.9527 71.4333 25.602C71.0814 25.4266 70.5535 25.2513 70.2016 25.2513C70.3776 24.7252 70.9054 24.0238 71.2573 23.6731ZM99.5843 15.7821C106.094 14.7299 112.956 14.3792 119.994 14.3792C111.9 19.8152 103.103 20.8674 99.0564 21.0427C98.7046 20.8674 98.0008 20.3413 97.473 20.166C97.1211 19.9906 96.5932 19.4645 96.2413 19.4645C96.9451 18.7631 97.473 18.237 98.1767 17.5356C98.3527 17.3603 98.8805 16.8342 99.2324 16.4835C99.0565 16.3081 99.4083 16.1328 99.5843 15.7821ZM127.383 14.7299C133.717 15.0806 139.875 15.9574 146.561 17.5356C137.764 21.2181 129.143 20.692 125.096 20.5167C124.392 19.8152 124.04 19.4645 123.513 19.1138C123.337 18.9385 122.809 18.7631 122.457 18.237C123.161 17.8863 123.865 17.3603 124.568 17.0096C124.92 16.6588 125.448 16.3081 125.8 15.9574C126.328 15.6067 126.856 15.0806 127.383 14.7299ZM153.423 19.4645C159.053 21.0427 164.508 23.147 169.962 25.9527C161.693 27.1802 154.303 25.2513 150.784 24.5498C150.432 23.8484 149.904 23.4977 149.552 22.9716C149.2 22.7963 148.849 22.2702 148.497 22.0949C149.376 21.7442 149.904 21.2181 150.784 21.0427C151.136 20.8674 151.664 20.692 152.192 20.166C152.719 19.8152 152.895 19.6399 153.423 19.4645ZM176.824 29.2844C181.574 31.7394 186.149 34.5451 190.899 37.7015C184.037 36.6494 178.407 34.1944 175.592 32.9669C175.416 32.2655 174.888 31.7394 174.712 31.038C174.36 30.8626 174.009 30.3366 173.833 29.9859C174.712 29.8105 175.24 29.6352 176.12 29.2844C176.472 29.4598 176.648 29.4598 176.824 29.2844ZM199.696 43.6636C211.837 52.7821 221.337 62.0759 229.255 71.1944V71.5451C229.255 72.2465 229.255 72.948 229.255 73.474C228.903 73.474 228.199 73.1233 227.32 72.7726C226.968 72.5972 226.616 72.4219 226.264 72.0712C225.032 71.7205 223.625 70.8437 221.865 69.9669C221.162 69.6162 220.634 69.2655 220.282 68.9148C219.226 68.5641 218.346 67.8627 217.643 67.3366C217.291 67.1612 216.939 66.9859 216.587 66.6352C215.179 65.583 213.596 64.5309 212.012 63.1281C211.837 62.9527 211.309 62.7773 211.133 62.2513C210.429 61.9006 209.901 61.1991 209.197 60.6731C207.79 59.2702 206.558 57.5167 204.975 55.7631C204.623 55.0617 204.271 54.5356 203.919 53.8342C203.215 52.7821 202.687 51.5546 201.984 50.5025C200.928 48.0475 200.048 45.5925 199.696 43.6636ZM74.0724 28.9337C73.3686 28.583 72.6649 28.057 71.9611 27.8816C70.7295 27.5309 69.6738 27.1802 68.6181 27.0048C64.2195 31.7394 59.4691 34.8958 55.7742 37.1754C56.478 37.5262 57.0058 38.0522 57.8856 38.2276C70.0257 43.6636 82.1658 39.8058 84.1012 39.4551C82.8696 37.3508 80.2304 32.0901 74.0724 28.9337ZM99.0564 23.8484C98.3527 23.4977 97.8248 22.9716 96.9451 22.6209C95.8895 21.9195 95.0097 21.5688 93.9541 21.2181C89.0276 25.0759 83.7493 27.3555 79.3507 28.9337C80.0545 29.6352 80.5823 29.9859 81.2861 30.3366C92.3706 38.0522 104.687 36.2987 106.798 36.2987C106.446 33.493 104.687 28.2323 99.0564 23.8484ZM124.744 23.147C124.04 22.7963 123.513 22.0949 122.809 21.7442C121.929 20.8674 121.225 20.3413 120.17 19.6399C114.54 22.6209 109.085 24.0238 104.863 24.9006C105.214 25.602 105.918 25.9527 106.27 26.4788C115.595 35.7726 128.263 36.474 130.374 36.6494C130.023 34.1944 129.319 28.4077 124.744 23.147ZM149.904 27.1802C149.552 26.4788 149.025 25.9527 148.497 25.2513C147.793 24.1991 146.913 23.6731 146.033 22.7963C140.051 24.9006 134.421 25.2513 129.847 25.2513C130.199 25.9527 130.726 26.4788 131.078 27.1802C138.82 37.8769 150.96 40.8579 153.071 41.5593C153.423 38.7536 153.775 33.1423 149.904 27.1802ZM174.36 35.4219C174.009 34.5451 173.481 34.019 173.129 33.3176C172.777 32.2655 172.073 31.2134 171.193 30.3366C165.035 31.2134 159.053 30.5119 154.831 29.9859C155.007 30.6873 155.534 31.2134 155.71 32.0901C161.341 44.1897 173.129 49.0996 175.064 50.1517C175.768 47.6968 177 41.91 174.36 35.4219ZM196.353 45.7679C196.002 44.7157 195.474 43.6636 194.946 42.6115C188.436 42.2607 182.806 40.5072 178.759 39.1044C178.935 39.8058 178.935 40.5072 179.111 41.384C182.63 54.1849 193.714 61.5499 195.298 62.7773C196.353 60.4977 198.641 55.0617 197.233 48.0475C197.057 47.3461 196.881 46.6446 196.353 45.7679Z" fill="#DD8600"/>
</svg>
